<svg width="500" height="303" viewBox="0 0 674 409" fill="none" xmlns="http://www.w3.org/2000/svg">
<g clip-path="url(#clip0)">
<path d="M428.642 409C564.15 409 674 399.114 674 386.919C674 374.724 564.15 364.838 428.642 364.838C293.134 364.838 183.283 374.724 183.283 386.919C183.283 399.114 293.134 409 428.642 409Z" fill="#3F3D56"/>
<path opacity="0.3" d="M308.713 180.42L575.032 180.42V-4.57764e-05L308.713 -4.57764e-05V180.42Z" fill="#3F3D56"/>
<path d="M558.033 16.5308H479.176V102.49H558.033V16.5308Z" fill="#F2F2F2"/>
<path d="M354.516 21.7261L430.54 21.7261V16.5307L354.516 16.5307V21.7261Z" fill="#F2F2F2"/>
<path d="M479.176 120.91H506.091V115.714H479.176V120.91Z" fill="#F2F2F2"/>
<path d="M480.12 130.356H557.088V125.161L480.12 125.161V130.356Z" fill="#F2F2F2"/>
<path d="M338.934 40.6182L448.483 40.6182V35.4228L338.934 35.4228V40.6182Z" fill="#F2F2F2"/>
<path d="M338.934 55.2593L448.483 55.2593V50.0639L338.934 50.0639V55.2593Z" fill="#F2F2F2"/>
<path d="M338.934 69.9009L448.483 69.9009V64.7055L338.934 64.7055V69.9009Z" fill="#F2F2F2"/>
<path d="M338.934 84.5425L448.483 84.5425V79.3471L338.934 79.3471V84.5425Z" fill="#F2F2F2"/>
<path d="M338.934 99.1836L448.483 99.1836V93.9883L338.934 93.9883V99.1836Z" fill="#F2F2F2"/>
<path d="M338.934 113.825L448.483 113.825V108.63L338.934 108.63V113.825Z" fill="#F2F2F2"/>
<path d="M338.934 128.467H448.483V123.271L338.934 123.271V128.467Z" fill="#F2F2F2"/>
<path d="M491.019 65.6153C492.186 64.7846 493.474 64.1385 494.837 63.7C503.483 60.4825 512.541 58.5101 521.741 57.8421C529.741 57.2746 538.412 57.9486 544.66 62.9775C545.632 63.6908 546.427 64.6176 546.985 65.6866C547.771 67.3833 547.533 69.3555 547.278 71.2081C547.221 71.9267 547.04 72.63 546.743 73.2868C545.902 74.888 543.832 75.449 542.034 75.257C540.236 75.065 538.549 74.304 536.775 73.9512C535.677 73.7598 534.567 73.6468 533.454 73.6129L522.33 73.0106C515.414 72.636 508.406 72.2677 501.621 73.664C499.532 74.0395 497.514 74.7351 495.637 75.7263C494.088 76.5966 493.044 77.8453 491.606 76.2379C489.08 73.414 487.682 68.2237 491.019 65.6153Z" fill="#2F2E41"/>
<path d="M508.255 70.5351C508.255 70.5351 523.216 63.8268 528.891 71.5671C534.566 79.3074 525.796 76.2113 525.796 76.2113L515.994 79.3074L505.16 77.2433L508.255 70.5351Z" fill="#F2F2F2"/>
<path d="M509.029 65.6329C509.029 65.6329 511.093 75.4373 509.545 78.0174C507.997 80.5975 518.316 84.2097 518.316 84.2097L528.118 80.0815C528.118 80.0815 525.538 64.0849 528.118 60.9888L509.029 65.6329Z" fill="#FFB9B9"/>
<path opacity="0.1" d="M509.029 65.6329C509.029 65.6329 511.093 75.4373 509.545 78.0174C507.997 80.5975 518.316 84.2097 518.316 84.2097L528.118 80.0815C528.118 80.0815 525.538 64.0849 528.118 60.9888L509.029 65.6329Z" fill="black"/>
<path d="M532.761 55.8283C532.757 59.9329 531.126 63.8685 528.224 66.771C525.322 69.6734 521.387 71.3055 517.283 71.3089C516.361 71.3104 515.441 71.2275 514.534 71.0612C511.637 70.538 508.95 69.1995 506.787 67.2027C504.624 65.2059 503.076 62.6337 502.323 59.7876C501.57 56.9416 501.644 53.9398 502.536 51.1344C503.428 48.329 505.102 45.8362 507.361 43.9486C509.619 42.0609 512.369 40.8566 515.288 40.4769C518.207 40.0973 521.173 40.558 523.84 41.805C526.506 43.052 528.761 45.0336 530.341 47.5175C531.922 50.0013 532.761 52.8843 532.761 55.8283Z" fill="#FFB9B9"/>
<path d="M542.106 102.962H492.747L493.866 98.1022L498.711 76.9855L504.311 73.2024L504.316 73.1977L506.946 71.4171L508.254 70.5339C508.254 70.5339 509.028 70.8881 509.921 71.3699C510.181 71.5162 510.445 71.6674 510.709 71.828C510.714 71.8233 510.714 71.828 510.714 71.828C511.142 72.0767 511.55 72.3594 511.932 72.6734C512.003 72.7395 512.065 72.7962 512.126 72.8576C513.108 73.84 515.974 79.0543 520.715 76.3857C520.955 76.2541 521.186 76.1091 521.409 75.9512C522.645 75.0958 523.823 74.1602 524.937 73.1505C525.933 72.2389 526.58 71.5352 527.109 71.0487C527.346 70.8122 527.616 70.6117 527.912 70.4536C528.134 70.3367 528.382 70.2767 528.634 70.2789C530.183 70.2789 532.246 73.3724 532.246 73.3724L532.308 73.5519L532.312 73.5661L538.824 93.1194L542.106 102.962Z" fill="#F2F2F2"/>
<path d="M492.747 102.962H507.706C507.739 101.233 507.65 99.5028 507.437 97.7859C506.979 94.3334 505.855 91.0084 505.147 87.5984C504.524 84.6101 504.221 81.5637 504.245 78.5112C504.25 78.0909 504.259 77.6658 504.297 77.2407C504.334 76.2674 504.615 75.319 505.114 74.4825C505.468 73.9394 505.954 73.4765 506.332 72.957C506.463 72.7869 506.579 72.6051 506.677 72.4138V72.4091C506.724 72.3152 506.767 72.2191 506.804 72.121C506.888 71.8951 506.935 71.6577 506.946 71.4172C507.031 69.8586 505.619 68.3567 504.094 67.7144C501.953 66.9104 499.611 66.816 497.412 67.4452C495.233 68.0752 493.128 68.9365 491.132 70.0145C490.457 70.3451 489.786 70.6852 489.139 71.063C488.367 71.5011 487.657 72.0413 487.029 72.6689C485.423 74.3267 484.72 76.6362 484.153 78.8702C483.613 80.5779 483.428 82.3782 483.61 84.16C483.615 84.2167 483.629 84.2781 483.638 84.3348C484.2 87.2772 486.599 89.4876 487.879 92.1986C489.361 95.3442 489.262 99.0093 488.672 102.438C488.644 102.613 488.611 102.788 488.577 102.962H492.747V102.962Z" fill="#2F2E41"/>
<path d="M553.642 84.0652C551.764 90.2408 550.401 96.5614 549.567 102.962H528.242C527.685 101.441 527.129 99.9189 526.575 98.3949C526.133 97.2449 525.753 96.0719 525.437 94.881C525.1 93.4962 524.939 92.0742 524.96 90.6491C524.96 90.309 524.974 89.9643 525.003 89.6242C525.005 89.6216 525.006 89.6182 525.006 89.6148C525.006 89.6113 525.005 89.6079 525.003 89.6053C525.132 87.8079 525.548 86.0428 526.235 84.3769C526.551 83.6195 526.913 82.8829 527.321 82.1712C528.313 80.3765 529.512 78.6856 530.579 76.9287C531.244 75.855 531.824 74.7306 532.312 73.5659C532.312 73.5633 532.312 73.5607 532.313 73.5582C532.314 73.5558 532.315 73.5536 532.317 73.5517C532.954 72.0665 533.287 70.4684 533.295 68.8523C533.262 66.7694 529.739 63.1374 533.568 63.4869C538.796 63.9592 543.286 66.9678 547.38 70.3967C548.471 71.313 549.538 72.2623 550.582 73.1975C552.197 74.6522 553.901 76.2391 554.388 78.3597C554.466 78.6978 554.511 79.0426 554.525 79.3894C554.496 80.9867 554.198 82.5677 553.642 84.0652Z" fill="#2F2E41"/>
<path d="M521.679 78.3692C521.142 76.9184 520.319 75.5905 519.258 74.4646C518.189 73.56 516.922 72.9182 515.56 72.5905C513.795 72.0862 511.97 71.8246 510.135 71.8127C507.95 71.7991 505.416 72.3853 504.488 74.3639C503.752 75.9351 504.323 77.7957 505.065 79.3645C505.382 80.1772 505.91 80.8906 506.594 81.431C507.536 82.0678 508.755 82.0476 509.872 82.2609C511.604 82.7007 513.244 83.4441 514.716 84.4567L518.543 86.7704L525.116 90.7445C524.943 90.6397 525.005 86.1311 524.803 85.3922C524.153 83.0119 522.688 80.6233 521.679 78.3692Z" fill="#FFB9B9"/>
<path d="M532.371 47.7607C532.096 46.835 531.49 46.0431 530.668 45.5362C530.71 44.5445 530.588 43.5526 530.308 42.6005C529.371 39.829 527.15 39.9879 525.055 38.7625C524.146 38.2309 524.202 37.761 523.729 36.8878C523.109 35.7431 522.181 34.7953 521.049 34.1523C519.705 33.2958 518.286 32.4136 516.696 32.3052C513.354 32.0774 510.792 35.221 507.599 36.23C506.191 36.6747 504.678 36.693 503.263 37.1134C501.848 37.5338 500.436 38.5376 500.225 39.999C500.128 40.6737 500.3 41.3658 500.201 42.0404C500.005 43.381 498.829 44.3199 498.042 45.4225C496.301 47.8609 496.5 51.3056 497.892 53.9587C498.185 54.5076 498.521 55.0329 498.896 55.5298C499.012 56.7838 499.372 58.003 499.956 59.1189C501.348 61.7719 503.743 63.7544 506.245 65.4015C506.04 64.5216 505.916 63.6249 505.874 62.7224C505.839 62.4217 505.878 62.1169 505.988 61.8348C506.267 61.2521 507.003 61.0972 507.565 60.7781C508.727 60.1171 509.184 58.6544 509.217 57.317C509.251 55.9796 508.967 54.64 509.107 53.3096C509.113 53.0036 509.182 52.7022 509.312 52.4248C509.441 52.1473 509.626 51.9 509.857 51.6988C510.286 51.454 510.776 51.337 511.27 51.3619C513.652 51.2647 516.142 51.2209 518.243 50.0939C518.921 49.6437 519.65 49.275 520.414 48.9957C522.2 48.5298 524.025 49.782 525.055 51.3144C526.084 52.8468 526.597 54.6704 527.547 56.2535C528.497 57.8365 530.137 59.2483 531.973 59.0607C532.077 59.0609 532.179 59.0393 532.274 58.9973C532.368 58.9553 532.453 58.8938 532.522 58.8168C532.601 58.6745 532.636 58.5118 532.623 58.3495L532.725 51.3291C532.811 50.1282 532.691 48.9215 532.371 47.7607Z" fill="#2F2E41"/>
<path d="M491.553 94.6449C491.888 97.4079 492.091 100.18 492.162 102.962H479.176V92.0473C479.242 91.7827 479.313 91.523 479.398 91.2632C480.21 88.76 481.915 86.663 483.393 84.4857C483.464 84.377 483.539 84.2684 483.61 84.1598C484.239 83.2413 484.779 82.2656 485.225 81.2457C485.438 80.745 485.778 78.3221 486.136 78.1143C487.676 77.2217 488.927 81.0379 489.14 81.888C489.895 84.9155 490.552 87.9713 491.047 91.0555C491.241 92.2504 491.409 93.4469 491.553 94.6449Z" fill="#2F2E41"/>
<path d="M557.174 102.962H527.364C527.109 102.362 526.859 101.762 526.594 101.167C524.735 96.9618 522.332 93.019 519.445 89.4401C518.969 88.9669 518.659 88.3521 518.562 87.6878C518.552 87.412 518.619 87.1389 518.756 86.8991C519.209 86.0536 520.408 85.5577 521.381 85.1563C522.386 84.7514 523.311 84.1691 524.11 83.4371C524.817 82.8007 525.359 82.0014 525.688 81.1086C525.775 80.8468 525.841 80.5783 525.886 80.3058C526.023 80.4852 526.164 80.6694 526.301 80.8489C526.637 81.2928 526.977 81.7321 527.321 82.1713C530.627 86.4173 534.258 90.6019 538.824 93.1193C540.017 93.7842 541.277 94.3209 542.583 94.7205C542.708 94.7754 542.843 94.8038 542.979 94.8038C543.116 94.8038 543.251 94.7754 543.376 94.7205C543.569 94.5623 543.692 94.3353 543.721 94.0876C544.127 92.3873 544.268 90.635 544.566 88.9112C545.112 85.7746 546.163 82.7473 547.678 79.9468C548.523 78.374 551.271 72.6261 553.013 76.2487C553.514 77.2924 554.018 78.3394 554.525 79.3895C554.841 80.0555 555.162 80.7166 555.483 81.3827C556.668 83.4954 557.208 85.9091 557.037 88.3255C557.084 93.2091 557.129 98.088 557.174 102.962Z" fill="#2F2E41"/>
<path opacity="0.1" d="M492.747 102.962H495.33L493.866 98.1024L491.755 91.0981C491.78 92.284 491.712 93.4699 491.552 94.6451C491.234 97.0741 490.539 99.4388 489.493 101.654C489.29 102.084 489.073 102.518 488.898 102.962H492.747Z" fill="black"/>
<path opacity="0.1" d="M545.359 88.0264C544.996 89.0047 545.326 90.0866 545.606 91.092C546.418 94.0083 546.798 97.0281 546.732 100.055C546.743 100.108 546.742 100.163 546.727 100.215C546.712 100.267 546.685 100.315 546.647 100.353C546.609 100.392 546.562 100.421 546.51 100.437C546.458 100.453 546.403 100.456 546.35 100.446C545.159 100.519 543.796 100.526 542.988 99.6484L545.359 88.0264Z" fill="black"/>
<path opacity="0.3" d="M266.319 1.85693H0V182.277H266.319V1.85693Z" fill="#3F3D56"/>
<path d="M95.8558 18.3877H16.999V104.347H95.8558V18.3877Z" fill="#F2F2F2"/>
<path d="M220.516 18.3877H144.492V23.583H220.516V18.3877Z" fill="#F2F2F2"/>
<path d="M44.8585 117.571H17.9434V122.767H44.8585V117.571Z" fill="#F2F2F2"/>
<path d="M94.9113 127.018H17.9434V132.213H94.9113V127.018Z" fill="#F2F2F2"/>
<path d="M236.098 37.2798H126.549V42.4751H236.098V37.2798Z" fill="#F2F2F2"/>
<path d="M236.098 51.9214H126.549V57.1167H236.098V51.9214Z" fill="#F2F2F2"/>
<path d="M236.098 66.5625H126.549V71.7578H236.098V66.5625Z" fill="#F2F2F2"/>
<path d="M236.098 81.2041H126.549V86.3994H236.098V81.2041Z" fill="#F2F2F2"/>
<path d="M236.098 95.8452H126.549V101.041H236.098V95.8452Z" fill="#F2F2F2"/>
<path d="M236.098 110.487H126.549V115.682H236.098V110.487Z" fill="#F2F2F2"/>
<path d="M236.098 125.128H126.549V130.324H236.098V125.128Z" fill="#F2F2F2"/>
<path d="M93.7122 104.819H83.4609C82.6723 102.699 81.9719 100.551 81.3596 98.3772C80.9557 95.8208 79.7906 93.4457 78.0164 91.5618C77.4747 90.9578 76.9924 90.303 76.5762 89.6065C75.6974 87.8915 75.3802 85.9434 75.6696 84.0381C75.7286 83.5077 75.8169 82.9811 75.934 82.4605C76.3826 80.4438 77.1334 78.5074 77.7614 76.5426C77.8942 76.1436 78.1363 75.7899 78.4602 75.5219C78.7842 75.2538 79.1769 75.0822 79.5936 75.0265C80.2694 74.9133 80.9635 74.9935 81.5957 75.2579C81.7355 75.3149 81.8699 75.3844 81.9971 75.4657C83.1162 76.1412 83.697 77.5203 84.1644 78.7813C86.3035 84.5246 88.441 90.2678 90.5769 96.0109C90.9924 97.1256 91.4079 98.2434 91.8235 99.3643C92.4373 101.008 93.0464 102.652 93.5659 104.328C93.6178 104.494 93.665 104.654 93.7122 104.819Z" fill="#D0CDE1"/>
<path d="M51.0356 29.2272C48.4868 30.0881 46.1776 32.1019 45.6557 34.7416C45.4138 35.9653 45.5621 37.2373 45.3585 38.4679C44.8863 41.3219 42.6465 43.5016 40.5806 45.5262C38.5148 47.5507 36.3814 49.9032 36.2306 52.7921C36.0655 55.9556 38.3592 58.9192 37.9623 62.062C37.5012 65.7132 33.6456 68.0791 32.6925 71.6338C32.0561 74.0074 32.8359 76.5642 34.119 78.66C36.5641 82.6536 40.7434 85.3649 45.1941 86.8184C49.6448 88.2718 54.3849 88.5776 59.0666 88.6267C64.767 88.6864 70.9562 88.1969 75.2392 84.4338C77.6858 82.265 79.2222 79.2514 79.5405 75.9971C79.9474 71.6381 78.1285 67.1341 79.3831 62.9399C80.1727 60.3003 82.1528 57.8896 81.8573 55.1502C81.5684 52.4719 79.2297 50.5734 77.6252 48.4096C76.1272 46.3894 75.2181 44.0035 74.3273 41.6514L71.279 33.6035C70.6798 32.0214 70.0218 30.3575 68.6864 29.3191C66.1863 27.3752 62.1664 27.7571 59.2431 28.1581C56.5312 28.53 53.6436 28.3462 51.0356 29.2272Z" fill="#2F2E41"/>
<path d="M53.3938 55.7502C53.3938 55.7502 53.6921 64.7031 52.7971 65.5984C51.902 66.4936 56.3774 72.4622 56.3774 72.4622L64.4332 72.1638L68.6102 68.8811L65.0299 64.1062C65.0299 64.1062 63.5381 56.3471 64.7316 54.5565C65.925 52.766 53.3938 55.7502 53.3938 55.7502Z" fill="#A0616A"/>
<path opacity="0.1" d="M53.3938 55.7502C53.3938 55.7502 53.6921 64.7031 52.7971 65.5984C51.902 66.4936 56.3774 72.4622 56.3774 72.4622L64.4332 72.1638L68.6102 68.8811L65.0299 64.1062C65.0299 64.1062 63.5381 56.3471 64.7316 54.5565C65.925 52.766 53.3938 55.7502 53.3938 55.7502Z" fill="black"/>
<path d="M58.3167 59.1818C64.2488 59.1818 69.0577 54.3717 69.0577 48.4383C69.0577 42.5048 64.2488 37.6948 58.3167 37.6948C52.3846 37.6948 47.5757 42.5048 47.5757 48.4383C47.5757 54.3717 52.3846 59.1818 58.3167 59.1818Z" fill="#A0616A"/>
<path d="M63.822 104.819H72.5293C72.8551 104.229 73.162 103.615 73.5162 103.057V103.053C73.9033 102.379 74.4476 101.808 75.1027 101.39C75.5193 101.199 75.9136 100.963 76.2785 100.686C76.6278 100.308 76.8748 99.8459 76.9963 99.3451C77.596 97.4711 77.9267 95.5215 77.9784 93.5546C77.9926 92.8934 77.9784 92.2227 78.0162 91.5615C78.0348 91.0448 78.1012 90.531 78.2145 90.0265C78.5134 89.0009 78.9469 88.0194 79.5036 87.1077C80.6841 84.9587 81.8677 82.8097 83.0545 80.6607C83.2685 80.0554 83.3506 79.4112 83.2954 78.7715C83.2698 77.9086 83.005 77.0697 82.5304 76.3486C82.3651 76.0511 82.1857 75.7535 81.9968 75.4654C81.2684 74.303 80.4201 73.2202 79.4658 72.2348C77.4411 70.111 74.9837 68.4471 72.2601 67.3559C71.9184 67.2409 71.5931 67.0822 71.2921 66.8836C70.9369 66.5835 70.6366 66.2239 70.4044 65.821C69.46 64.3993 68.3078 62.7982 66.6032 62.888C66.3257 62.7487 66.0233 62.6661 65.7136 62.645C65.4039 62.624 65.0932 62.6648 64.7994 62.7652C64.7097 62.7885 64.6214 62.8169 64.535 62.8502C63.8835 63.1387 63.2511 63.4684 62.6415 63.8373C61.0732 64.6516 59.2961 64.9742 57.5418 64.763C57.336 64.7486 57.1345 64.6974 56.9468 64.6119C56.7477 64.4856 56.5638 64.3366 56.399 64.1679C55.9681 63.815 55.4513 63.5826 54.9013 63.4947C54.3513 63.4067 53.7879 63.4663 53.2684 63.6673C52.7806 63.8411 52.3496 64.1448 52.0218 64.5458C51.7101 64.9378 51.4929 65.4101 51.1482 65.7785C50.2558 66.7325 48.7825 66.7703 47.4792 66.7656C44.7725 66.6899 42.0664 66.9389 39.4189 67.5071C37.0936 68.0232 34.9207 69.0743 33.0725 70.5771L33.0678 70.5818C32.8128 70.7991 32.5767 71.021 32.3406 71.2572C31.8036 71.7632 31.3761 72.374 31.0846 73.0519C30.7257 73.9777 30.7729 75.0215 30.4471 75.9613C30.0882 77.0146 29.2902 77.8742 28.9692 78.9321C28.7236 79.735 28.7567 80.623 28.3506 81.3503C28.3695 81.3645 28.3836 81.3787 28.4025 81.3928C30.1213 82.9042 31.5898 84.8879 33.3134 86.3851C34.3136 87.1473 35.1598 88.093 35.8066 89.1717C35.931 89.414 36.0337 89.6669 36.1135 89.9274C36.3074 90.8303 36.393 91.753 36.3685 92.6762C36.5857 97.0922 38.9797 101.097 41.6571 104.611C41.709 104.682 41.761 104.753 41.8176 104.819L63.822 104.819Z" fill="#D0CDE1"/>
<path d="M35.8067 89.1718C35.4006 91.9914 34.9914 94.8095 34.579 97.6261C34.3915 99.1345 34.1108 100.63 33.7385 102.103C33.493 103.015 33.1766 103.908 32.9547 104.819H20.6587C20.665 104.309 20.7044 103.799 20.7767 103.294C21.0933 101.478 21.608 99.7026 22.3114 97.9992C23.7422 94.1357 25.1713 90.2691 26.5989 86.3994C27.208 84.7511 27.7322 83.0271 28.4027 81.3929C28.5208 81.0907 28.6482 80.7884 28.7852 80.4956C29.4982 78.9275 31.4767 79.5699 32.9405 79.806C33.3424 79.856 33.7342 79.9675 34.1021 80.1366C34.5471 80.3818 34.9224 80.7361 35.1929 81.1662C36.5812 83.2208 36.2789 85.9365 35.9201 88.3925C35.8823 88.6523 35.8445 88.9121 35.8067 89.1718Z" fill="#D0CDE1"/>
<path d="M73.5165 103.057C73.5353 103.124 73.7384 103.827 74.0737 104.819H63.8223C68.9031 103.945 73.5165 103.053 73.5165 103.053V103.057Z" fill="#2F2E41"/>
<path d="M59.2118 48.4383C65.6382 48.4383 70.8479 45.6325 70.8479 42.1713C70.8479 38.7101 65.6382 35.9043 59.2118 35.9043C52.7853 35.9043 47.5757 38.7101 47.5757 42.1713C47.5757 45.6325 52.7853 48.4383 59.2118 48.4383Z" fill="#2F2E41"/>
<path d="M436.927 68.2759H170.609V248.696H436.927V68.2759Z" fill="#3F3D56"/>
<path opacity="0.1" d="M398.207 236.416C415.419 236.416 429.372 234.936 429.372 233.11C429.372 231.284 415.419 229.804 398.207 229.804C380.996 229.804 367.042 231.284 367.042 233.11C367.042 234.936 380.996 236.416 398.207 236.416Z" fill="black"/>
<path d="M266.465 84.8066H187.608V170.766H266.465V84.8066Z" fill="#F2F2F2"/>
<path d="M213 124.273C213.257 124.351 213.532 124.338 213.779 124.236C214.026 124.133 214.231 123.949 214.357 123.713C215.448 121.994 213.44 119.777 213.875 117.789C214.223 116.195 216.033 115.25 216.403 113.661C216.763 112.118 215.655 110.378 216.404 108.982C216.99 107.887 218.456 107.6 219.683 107.791C220.909 107.983 222.073 108.522 223.312 108.598C224.963 108.698 226.537 107.971 228.151 107.611C229.766 107.251 231.735 107.392 232.684 108.747C233.904 110.486 232.667 112.908 233.092 114.989C233.429 116.642 234.812 118.01 234.842 119.697C234.852 120.297 233.277 119.814 233.361 120.407C233.444 121.001 232.7 120.478 233.295 120.408C233.538 120.348 233.756 120.213 233.917 120.021C234.078 119.83 234.174 119.592 234.191 119.342C234.261 118.848 235.19 118.683 235.18 118.183C235.155 117.013 237.27 117.802 237.619 116.684C238.42 114.079 238.255 111.272 237.156 108.778C236.589 107.759 236.136 106.681 235.806 105.563C235.495 104.011 235.984 102.345 235.472 100.848C234.781 98.8299 232.495 97.8012 230.373 97.5923C228.251 97.3834 226.094 97.7574 223.984 97.4493C222.094 97.1733 220.264 96.3539 218.357 96.4726C216.07 96.6151 214.079 98.0894 212.493 99.7448C210.907 101.4 209.562 103.304 207.761 104.722C207.21 105.102 206.701 105.54 206.244 106.029C205.326 107.147 205.233 108.74 205.489 110.164C205.744 111.587 206.299 112.945 206.533 114.373C206.754 115.714 206.686 117.084 206.781 118.44C206.803 119.808 207.217 121.14 207.973 122.28C208.3 122.724 208.724 123.087 209.213 123.342C209.701 123.598 210.242 123.738 210.793 123.753C211.174 123.762 211.497 123.419 211.882 123.508C212.364 123.62 212.573 124.077 213 124.273Z" fill="#2F2E41"/>
<path d="M195.659 171.238C196.003 166.51 196.263 162.977 196.263 162.977L198.492 157.102L205.646 171.238L195.659 171.238Z" fill="#575A89"/>
<path opacity="0.1" d="M195.659 171.238C196.003 166.51 196.263 162.977 196.263 162.977L198.492 157.102L205.646 171.238L195.659 171.238Z" fill="black"/>
<path d="M212.237 124.754C212.237 124.754 218.908 141.738 215.067 144.972C211.227 148.207 236.494 139.514 236.494 139.514L235.887 137.29C235.887 137.29 227.6 134.055 231.643 124.754C235.685 115.454 212.237 124.754 212.237 124.754Z" fill="#A0616A"/>
<path opacity="0.1" d="M212.237 124.754C212.237 124.754 218.908 141.738 215.067 144.972C211.227 148.207 236.494 139.514 236.494 139.514L235.887 137.29C235.887 137.29 227.6 134.055 231.643 124.754C235.685 115.454 212.237 124.754 212.237 124.754Z" fill="black"/>
<path d="M221.738 131.628C229.552 131.628 235.887 125.292 235.887 117.476C235.887 109.659 229.552 103.323 221.738 103.323C213.923 103.323 207.588 109.659 207.588 117.476C207.588 125.292 213.923 131.628 221.738 131.628Z" fill="#A0616A"/>
<path d="M256.1 148.006C256.1 148.006 256.043 149.13 255.944 151.094C255.741 155.095 255.377 162.59 255.014 171.238H200.163C198.73 169.318 197.557 167.217 196.674 164.99C196.435 164.344 196.297 163.665 196.263 162.978C195.961 157.617 200.763 150.136 204.153 149.422C207.992 148.61 215.269 140.93 215.269 140.93C215.292 141.223 215.389 141.504 215.551 141.749C215.713 141.993 215.935 142.193 216.195 142.328V142.333C216.781 142.636 217.438 142.78 218.097 142.749C220.468 142.749 230.894 137.936 234.242 136.363C234.898 136.056 235.281 135.872 235.281 135.872C239.142 137.539 243.13 138.892 247.208 139.92C249.243 140.427 251.12 141.432 252.672 142.843C254.224 144.254 255.401 146.028 256.1 148.006Z" fill="#575A89"/>
<path d="M210.575 122.858C210.831 122.936 211.106 122.922 211.353 122.82C211.601 122.718 211.805 122.533 211.931 122.297C213.022 120.578 211.014 118.362 211.449 116.373C211.797 114.78 213.607 113.834 213.977 112.246C214.337 110.702 213.229 108.963 213.978 107.566C214.565 106.472 216.03 106.184 217.257 106.376C218.483 106.567 219.647 107.107 220.886 107.182C222.537 107.283 224.111 106.556 225.725 106.196C227.34 105.836 229.309 105.977 230.259 107.331C231.478 109.07 230.241 111.492 230.666 113.574C231.003 115.226 234.844 116.386 235.193 115.269C235.994 112.664 235.83 109.857 234.73 107.363C234.163 106.344 233.71 105.266 233.38 104.147C233.069 102.596 233.558 100.93 233.046 99.4322C232.355 97.4143 230.069 96.3857 227.947 96.1768C225.825 95.9679 223.668 96.3418 221.558 96.0337C219.668 95.7578 217.838 94.9384 215.932 95.0571C213.644 95.1995 211.653 96.6739 210.067 98.3293C208.481 99.9847 207.136 101.889 205.335 103.307C204.784 103.686 204.275 104.124 203.818 104.613C202.901 105.731 202.808 107.324 203.063 108.748C203.318 110.172 203.873 111.53 204.108 112.957C204.328 114.298 204.26 115.669 204.355 117.025C204.377 118.392 204.791 119.725 205.548 120.864C205.875 121.308 206.298 121.671 206.787 121.927C207.275 122.182 207.816 122.322 208.367 122.337C208.748 122.346 209.071 122.003 209.456 122.092C209.938 122.204 210.147 122.662 210.575 122.858Z" fill="#2F2E41"/>
<path opacity="0.1" d="M263.112 171.238H247.104C245.886 162.302 244.88 152.96 244.88 152.96L248.115 151.543L254.688 148.005C254.688 148.005 255.17 149.148 255.944 151.094C257.597 155.255 260.595 163.086 263.112 171.238Z" fill="black"/>
<path d="M264.524 171.238H246.458C243.78 161.461 241.141 150.834 241.141 150.834L248.016 145.781L256.1 148.005C256.1 148.005 260.831 159.27 264.524 171.238Z" fill="#575A89"/>
<path d="M391.125 84.8066H315.101V90.002H391.125V84.8066Z" fill="#6C63FF"/>
<path d="M215.467 183.99H188.552V189.186H215.467V183.99Z" fill="#6C63FF"/>
<path d="M265.52 193.436H188.552V198.631H265.52V193.436Z" fill="#6C63FF"/>
<path d="M406.707 103.699H297.157V108.894H406.707V103.699Z" fill="#F2F2F2"/>
<path d="M406.707 118.34H297.157V123.535H406.707V118.34Z" fill="#F2F2F2"/>
<path d="M406.707 132.981H297.157V138.177H406.707V132.981Z" fill="#F2F2F2"/>
<path d="M406.707 147.623H297.157V152.818H406.707V147.623Z" fill="#F2F2F2"/>
<path d="M406.707 162.264H297.157V167.459H406.707V162.264Z" fill="#F2F2F2"/>
<path d="M406.707 176.906H297.157V182.101H406.707V176.906Z" fill="#F2F2F2"/>
<path d="M406.707 191.547H297.157V196.742H406.707V191.547Z" fill="#F2F2F2"/>
<path d="M427.822 192.249L397.876 222.202L385.289 209.613C384.889 209.213 384.415 208.896 383.893 208.68C383.371 208.464 382.812 208.352 382.247 208.352C381.682 208.352 381.122 208.464 380.6 208.68C380.078 208.896 379.604 209.213 379.204 209.613L378.752 208.936C377.072 210.617 377.524 214.018 379.204 215.699L395.535 232.034C396.151 232.649 396.985 232.995 397.856 232.996C398.726 232.996 399.561 232.65 400.177 232.035L433.904 198.335C435.585 196.655 436.195 193.575 434.515 191.894C432.835 190.214 429.502 190.569 427.822 192.249Z" fill="#57B894"/>
<path opacity="0.1" d="M427.822 192.249L397.876 222.202L385.289 209.613C384.889 209.213 384.415 208.896 383.893 208.68C383.371 208.464 382.812 208.352 382.247 208.352C381.682 208.352 381.122 208.464 380.6 208.68C380.078 208.896 379.604 209.213 379.204 209.613L378.752 208.936C377.072 210.617 377.524 214.018 379.204 215.699L395.535 232.034C396.151 232.649 396.985 232.995 397.856 232.996C398.726 232.996 399.561 232.65 400.177 232.035L433.904 198.335C435.585 196.655 436.195 193.575 434.515 191.894C432.835 190.214 429.502 190.569 427.822 192.249Z" fill="black"/>
<path d="M427.822 190.921L397.876 220.874L385.289 208.285C384.89 207.885 384.416 207.568 383.893 207.352C383.371 207.135 382.812 207.024 382.247 207.024C381.682 207.024 381.122 207.135 380.6 207.352C380.078 207.568 379.604 207.885 379.205 208.285C378.805 208.684 378.488 209.159 378.272 209.681C378.056 210.203 377.944 210.762 377.944 211.328C377.944 211.893 378.056 212.452 378.272 212.975C378.488 213.497 378.805 213.971 379.205 214.371L395.536 230.705C396.151 231.321 396.986 231.667 397.856 231.667C398.726 231.667 399.561 231.322 400.177 230.707L433.904 197.007C434.304 196.608 434.621 196.133 434.838 195.611C435.054 195.089 435.166 194.529 435.166 193.964C435.166 193.399 435.055 192.839 434.838 192.317C434.622 191.795 434.305 191.32 433.906 190.921C433.099 190.114 432.005 189.661 430.864 189.661C429.723 189.661 428.629 190.114 427.822 190.921Z" fill="#57B894"/>
<path opacity="0.1" d="M648.14 364.411C648.14 398.185 601.074 387.738 543.447 387.738C485.82 387.738 439.454 398.185 439.454 364.411C439.454 330.638 486.513 323.292 544.14 323.292C601.767 323.292 648.14 330.638 648.14 364.411Z" fill="black"/>
<path d="M648.14 358.102C648.14 391.876 601.074 381.429 543.447 381.429C485.82 381.429 439.454 391.876 439.454 358.102C439.454 324.329 486.513 316.983 544.14 316.983C601.767 316.983 648.14 324.329 648.14 358.102Z" fill="#3F3D56"/>
<path d="M451.393 252.297L449.26 254.774C449.26 254.774 423.329 257.209 424.382 261.42C425.434 265.63 455.602 255.806 455.602 255.806L451.393 252.297Z" fill="#FFC1C7"/>
<path d="M498.399 250.192C498.399 250.192 470.687 260.016 455.603 255.806L462.618 269.841C462.618 269.841 498.399 268.788 504.713 262.472C511.028 256.157 498.399 250.192 498.399 250.192Z" fill="#6C63FF"/>
<path opacity="0.1" d="M498.399 250.192C498.399 250.192 470.687 260.016 455.603 255.806L462.618 269.841C462.618 269.841 498.399 268.788 504.713 262.472C511.028 256.157 498.399 250.192 498.399 250.192Z" fill="black"/>
<path d="M479.632 174.93C489.9 174.93 498.224 166.604 498.224 156.334C498.224 146.063 489.9 137.737 479.632 137.737C469.364 137.737 461.04 146.063 461.04 156.334C461.04 166.604 469.364 174.93 479.632 174.93Z" fill="#FFC1C7"/>
<path d="M495.485 173.792C496.125 175.014 496.936 176.139 497.894 177.131C500.44 179.903 503.479 182.177 506.856 183.839C496.303 185.984 485.645 187.569 474.925 188.588C476.057 184.602 474.567 180.338 472.565 176.709C470.562 173.081 468.01 169.7 466.757 165.749L479.323 166.087C481.603 166.149 483.891 166.217 486.171 166.105C487.874 166.022 490.713 165.001 492.303 165.377C495.666 166.172 494.017 170.809 495.485 173.792Z" fill="#FFC1C7"/>
<path d="M537.688 261.069L548.212 273.7C548.212 273.7 565.751 314.752 527.515 318.963C489.279 323.173 460.865 315.805 460.865 315.805C460.865 315.805 445.43 308.436 445.079 314.05C444.728 319.664 443.325 335.454 434.906 350.892L427.539 367.734C427.539 367.734 423.681 371.593 424.733 376.856C425.786 382.12 401.23 383.874 401.581 376.856C401.581 376.856 405.089 370.892 405.089 367.383C405.089 363.874 410.701 355.453 410.701 355.453L420.874 304.928C420.874 304.928 420.173 278.963 444.027 283.875C467.881 288.788 501.907 282.823 501.907 282.823L509.625 255.806L537.688 261.069Z" fill="#2F2E41"/>
<path opacity="0.1" d="M537.688 261.069L548.212 273.7C548.212 273.7 565.751 314.752 527.515 318.963C489.279 323.173 460.865 315.805 460.865 315.805C460.865 315.805 445.43 308.436 445.079 314.05C444.728 319.664 443.325 335.454 434.906 350.892L427.539 367.734C427.539 367.734 423.681 371.593 424.733 376.856C425.786 382.12 401.23 383.874 401.581 376.856C401.581 376.856 405.089 370.892 405.089 367.383C405.089 363.874 410.701 355.453 410.701 355.453L420.874 304.928C420.874 304.928 420.173 278.963 444.027 283.875C467.881 288.788 501.907 282.823 501.907 282.823L509.625 255.806L537.688 261.069Z" fill="black"/>
<path d="M498.224 260.145C498.224 260.145 530.321 248.087 548.211 273.7C548.211 273.7 552.772 313.349 534.531 315.103C516.289 316.858 492.435 316.507 486.823 310.542C481.21 304.577 445.78 287.735 445.78 287.735C445.78 287.735 428.144 278.737 424.684 290.429C421.225 302.121 420.874 304.928 420.874 304.928C420.874 304.928 402.633 318.261 395.266 320.717C395.266 320.717 390.355 327.735 387.549 327.735C384.742 327.735 367.554 331.594 369.307 318.612L397.722 292.647L426.136 264.929C426.136 264.929 434.204 252.999 454.901 259.315C468.636 263.403 482.569 266.799 496.645 269.49L498.224 260.145Z" fill="#2F2E41"/>
<path d="M423.68 376.155C423.68 376.155 430.346 392.997 424.733 395.102C419.12 397.207 407.193 395.804 407.193 395.804C407.193 395.804 393.162 394.049 389.654 394.4C386.146 394.751 371.763 391.944 373.868 386.33C375.973 380.716 386.847 382.12 386.847 382.12L396.669 377.558C396.669 377.558 397.722 374.049 400.177 375.453C402.633 376.856 409.649 382.12 423.68 376.155Z" fill="#CBCEDA"/>
<path d="M387.198 326.331C387.198 326.331 394.565 342.822 382.638 341.419C370.711 340.015 361.59 337.559 358.082 337.208C354.708 336.87 345.167 333.611 346.63 327.118C346.709 326.698 346.741 326.27 346.726 325.843C346.726 324.971 347.91 323.261 357.381 323.524C357.381 323.524 364.397 323.524 367.203 318.612C367.203 318.612 377.727 331.945 387.198 326.331Z" fill="#CBCEDA"/>
<path d="M466.828 185.982C466.828 185.982 492.085 170.193 513.132 185.982C534.18 201.772 548.211 273.7 548.211 273.7L499.451 262.823C499.451 262.823 497.346 254.402 494.54 252.999C491.734 251.595 491.383 245.631 491.383 245.631C491.383 245.631 476.299 241.069 477.351 223.526C478.404 205.982 466.828 185.982 466.828 185.982Z" fill="#6C63FF"/>
<path d="M479.807 186.684H466.828C466.828 186.684 459.11 195.456 458.058 217.561L453.848 235.104C453.848 235.104 445.079 256.157 450.341 259.665C455.602 263.174 465.775 262.823 467.88 255.806C469.985 248.788 484.367 208.087 484.367 208.087L479.807 186.684Z" fill="#6C63FF"/>
<path d="M476.087 132.132C479.305 130.812 482.826 130.411 486.259 130.974C489.691 131.537 492.9 133.042 495.528 135.32C502.265 141.334 503.624 151.144 505.327 160.013C507.03 168.883 510.456 178.76 518.814 182.18C515.046 182.683 511.223 182.572 507.491 181.85L520.121 193.171L498.846 186.235C492.168 184.058 485.156 181.853 478.241 183.083C466.787 185.12 458.812 195.89 447.81 199.674L449.032 193.707L441.651 193.65C443.419 192.342 444.866 190.647 445.88 188.694C445.532 188.272 445.103 187.923 444.618 187.669C444.133 187.416 443.602 187.262 443.056 187.217C439.979 168.02 451.376 149.044 466.229 136.502C469.15 134.035 472.383 131.665 476.156 131.048C479.929 130.431 484.334 132.119 485.646 135.711" fill="#2F2E41"/>
<path d="M154.208 308.066C154.208 348.453 179.539 381.133 210.843 381.133L154.208 308.066Z" fill="#3F3D56"/>
<path d="M210.843 381.133C210.843 340.292 239.111 307.245 274.044 307.245L210.843 381.133Z" fill="#6C63FF"/>
<path d="M174.729 311.727C174.729 350.09 190.881 381.133 210.843 381.133L174.729 311.727Z" fill="#6C63FF"/>
<path d="M210.843 381.133C210.843 328.948 243.516 286.72 283.894 286.72L210.843 381.133Z" fill="#3F3D56"/>
<path d="M198.929 381.648C198.929 381.648 206.96 381.401 209.381 379.677C211.802 377.953 221.736 375.894 222.336 378.659C222.937 381.424 234.407 392.411 225.339 392.484C216.271 392.557 204.269 391.071 201.853 389.599C199.437 388.127 198.929 381.648 198.929 381.648Z" fill="#A8A8A8"/>
<path opacity="0.2" d="M225.501 391.521C216.433 391.595 204.431 390.109 202.015 388.637C200.175 387.516 199.442 383.493 199.197 381.638C199.027 381.645 198.929 381.648 198.929 381.648C198.929 381.648 199.437 388.127 201.853 389.599C204.269 391.071 216.271 392.557 225.339 392.484C227.956 392.463 228.86 391.531 228.811 390.152C228.447 390.985 227.449 391.506 225.501 391.521Z" fill="black"/>
</g>
<defs>
<clipPath id="clip0">
<rect width="674" height="409" fill="white"/>
</clipPath>
</defs>
</svg>
