<svg width="240" height="205" viewBox="0 0 240 205" fill="none" xmlns="http://www.w3.org/2000/svg">
<g clip-path="url(#clip0)">
<g opacity="0.5">
<path opacity="0.5" d="M132.506 0.00673605L110.094 148.354L217.604 164.554L240.016 16.2061L132.506 0.00673605Z" fill="url(#paint0_linear)"/>
</g>
<path d="M133.71 1.30608L111.793 146.374L216.568 162.161L238.485 17.0933L133.71 1.30608Z" fill="#F5F5F5"/>
<path d="M213.778 77.7144L138.158 66.3201L137.466 70.8976L213.086 82.2919L213.778 77.7144Z" fill="#E0E0E0"/>
<path d="M212.049 89.1557L136.429 77.7615L135.738 82.339L211.358 93.7332L212.049 89.1557Z" fill="#E0E0E0"/>
<path d="M219.308 41.0979L180.352 35.228L179.66 39.8055L218.617 45.6754L219.308 41.0979Z" fill="#E0E0E0"/>
<path d="M214.144 52.0241L182.061 47.1899L181.369 51.7674L213.452 56.6016L214.144 52.0241Z" fill="#6891F9"/>
<path d="M201.154 99.2177L134.699 89.2043L134.007 93.7819L200.463 103.795L201.154 99.2177Z" fill="#E0E0E0"/>
<path d="M190.257 109.279L132.968 100.647L132.277 105.225L189.565 113.857L190.257 109.279Z" fill="#E0E0E0"/>
<path d="M181.654 119.686L131.24 112.089L130.548 116.667L180.963 124.263L181.654 119.686Z" fill="#E0E0E0"/>
<path d="M193.674 133.2L129.512 123.532L128.82 128.11L192.983 137.778L193.674 133.2Z" fill="#E0E0E0"/>
<path d="M152.991 138.771L127.785 134.973L127.094 139.551L152.299 143.349L152.991 138.771Z" fill="#6891F9"/>
<g opacity="0.5">
<path opacity="0.5" d="M172.968 41.524C173.366 38.887 173.074 36.192 172.119 33.7013C171.165 31.2106 169.581 29.009 167.522 27.3109C165.463 25.6128 162.999 24.476 160.369 24.011C157.74 23.5461 155.035 23.7689 152.517 24.6577C149.999 25.5466 147.755 27.0712 146.002 29.0833C144.25 31.0953 143.049 33.5262 142.516 36.1394C141.983 38.7526 142.136 41.459 142.962 43.9953C143.787 46.5316 145.255 48.8114 147.224 50.6127C147.224 50.6346 147.224 50.6593 147.224 50.6812C147.651 51.2372 148.183 51.703 148.792 52.0517L148.822 51.9859C149.445 52.7067 152.313 54.143 155.779 54.6555H155.856C158.052 54.9899 160.491 54.9597 162.756 54.143C162.756 54.143 162.78 54.1046 162.822 54.0333C163.39 53.8639 163.928 53.6038 164.413 53.2631L164.463 53.0932C166.713 51.9972 168.663 50.3715 170.144 48.3562C171.626 46.3409 172.595 43.9963 172.968 41.524Z" fill="url(#paint1_linear)"/>
</g>
<path d="M172.441 40.8925C173.677 32.7095 168.037 25.075 159.843 23.8403C151.649 22.6057 144.004 28.2385 142.768 36.4214C141.532 44.6044 147.172 52.2389 155.366 53.4735C163.56 54.7082 171.204 49.0754 172.441 40.8925Z" fill="#F5F5F5"/>
<path d="M150.764 43.5934C150.764 43.5934 147.197 43.3495 147.15 49.9221C147.564 50.4594 148.081 50.9094 148.67 51.2459L151.673 44.8241L150.764 43.5934Z" fill="#FDA57D"/>
<path d="M162.237 45.3228C162.237 45.3228 165.728 46.145 163.823 52.4353C163.269 52.8286 162.642 53.1081 161.979 53.2575L161.004 46.2382L162.237 45.3228Z" fill="#FDA57D"/>
<path d="M152.51 33.0796C152.51 33.0796 150.09 37.7144 149.242 37.1169C149.242 37.1169 156.943 46.0877 165.915 39.6275C165.217 37.8814 164.312 36.2251 163.22 34.694L152.51 33.0796Z" fill="#333333"/>
<path d="M164.844 34.4726C165.392 30.8459 162.893 27.4623 159.261 26.9151C155.629 26.3679 152.241 28.8643 151.693 32.4911C151.145 36.1178 153.645 39.5015 157.277 40.0487C160.908 40.5958 164.296 38.0994 164.844 34.4726Z" fill="#333333"/>
<path opacity="0.1" d="M162.168 45.3119L150.696 43.5852L148.934 48.0062C148.934 48.0062 147.985 50.0317 148.627 51.0842C149.269 52.1367 156.254 55.3572 162.075 53.2769C162.728 52.1255 162.984 50.7919 162.805 49.4808C162.517 47.2497 162.676 49.3054 162.676 49.3054L162.168 45.3119Z" fill="black"/>
<path opacity="0.1" d="M162.322 45.3366L150.85 43.6099L149.09 48.0281C149.09 48.0281 148.141 50.0536 148.783 51.1061C149.425 52.1586 156.41 55.3791 162.231 53.2988C162.884 52.1474 163.141 50.8138 162.961 49.5027C162.673 47.2717 162.832 49.3273 162.832 49.3273L162.322 45.3366Z" fill="black"/>
<path d="M162.237 45.3229L150.765 43.5962L149.003 48.0172C149.003 48.0172 148.053 50.0427 148.696 51.0952C149.338 52.1477 156.323 55.3682 162.144 53.2879C162.797 52.1365 163.053 50.8028 162.874 49.4918C162.586 47.2607 162.745 49.3164 162.745 49.3164L162.237 45.3229Z" fill="#FDD835"/>
<path opacity="0.1" d="M154.854 40.3356L159.443 41.0271L158.818 45.1628C158.745 45.6466 158.483 46.0815 158.089 46.3719C157.695 46.6624 157.201 46.7846 156.717 46.7116L155.778 46.5701C155.293 46.4971 154.858 46.2349 154.567 45.8413C154.276 45.4476 154.154 44.9547 154.227 44.471L154.852 40.3352L154.854 40.3356Z" fill="black"/>
<path d="M154.877 40.166L159.466 40.8575L158.841 44.9932C158.768 45.477 158.506 45.9119 158.111 46.2024C157.717 46.4928 157.224 46.615 156.739 46.542L155.803 46.4009C155.319 46.3279 154.883 46.0658 154.592 45.6721C154.301 45.2784 154.179 44.7855 154.252 44.3018L154.877 40.166Z" fill="#FDA57D"/>
<path opacity="0.1" d="M154.791 40.8143C156.186 41.589 157.813 41.8389 159.377 41.5187L159.462 40.9568L154.873 40.2661L154.791 40.8143Z" fill="black"/>
<path d="M164.629 35.8972C165.177 32.2705 162.677 28.8868 159.046 28.3396C155.414 27.7924 152.026 30.2889 151.478 33.9156C150.93 37.5424 153.43 40.926 157.061 41.4732C160.693 42.0204 164.081 39.524 164.629 35.8972Z" fill="#FDA57D"/>
<path d="M152.129 31.4598L164.671 33.3482C164.671 33.3482 164.364 28.1406 159.575 27.7377C154.786 27.3348 152.129 31.4598 152.129 31.4598Z" fill="#333333"/>
<path d="M152.265 33.7454C152.361 33.1122 152.165 32.5578 151.828 32.5069C151.49 32.4561 151.139 32.9282 151.044 33.5614C150.948 34.1945 151.144 34.749 151.481 34.7998C151.818 34.8506 152.169 34.3785 152.265 33.7454Z" fill="#FDA57D"/>
<path d="M165.113 35.6824C165.209 35.0492 165.013 34.4948 164.676 34.4439C164.339 34.3931 163.988 34.8652 163.892 35.4984C163.796 36.1315 163.992 36.686 164.329 36.7368C164.667 36.7876 165.018 36.3155 165.113 35.6824Z" fill="#FDA57D"/>
<path opacity="0.1" d="M152.109 31.6294L164.652 33.5179C164.652 33.5179 164.344 28.3103 159.555 27.9073C154.766 27.5044 152.109 31.6294 152.109 31.6294Z" fill="black"/>
<g opacity="0.5">
<path opacity="0.5" d="M107.73 21.3215L0.090332 38.6946L24.1266 187.221L131.766 169.848L107.73 21.3215Z" fill="url(#paint2_linear)"/>
</g>
<path d="M106.112 22.1886L1.54688 39.3076L25.3127 184.085L129.877 166.966L106.112 22.1886Z" fill="#F5F5F5"/>
<path d="M101.264 87.4453L25.7954 99.8008L26.5453 104.369L102.014 92.0136L101.264 87.4453Z" fill="#E0E0E0"/>
<path d="M103.139 98.8654L27.6699 111.221L28.4198 115.789L103.889 103.434L103.139 98.8654Z" fill="#E0E0E0"/>
<path d="M95.2683 50.9035L56.3896 57.2686L57.1396 61.8369L96.0182 55.4718L95.2683 50.9035Z" fill="#E0E0E0"/>
<path d="M93.7112 62.8853L61.6929 68.1272L62.4428 72.6955L94.4611 67.4536L93.7112 62.8853Z" fill="#6891F9"/>
<path d="M95.8669 111.782L29.5444 122.641L30.2943 127.209L96.6169 116.351L95.8669 111.782Z" fill="#E0E0E0"/>
<path d="M88.5921 124.697L31.4185 134.058L32.1684 138.626L89.342 129.266L88.5921 124.697Z" fill="#E0E0E0"/>
<path d="M83.6063 137.242L33.293 145.479L34.0429 150.048L84.3562 141.81L83.6063 137.242Z" fill="#E0E0E0"/>
<path d="M99.2014 146.413L35.1675 156.896L35.9174 161.465L99.9513 150.981L99.2014 146.413Z" fill="#E0E0E0"/>
<path d="M62.1993 164.199L37.0439 168.318L37.7939 172.886L62.9492 168.768L62.1993 164.199Z" fill="#6891F9"/>
<g opacity="0.5">
<path opacity="0.5" d="M52.7055 64.5363C52.261 61.831 51.1228 59.2866 49.4016 57.1509C47.6804 55.0151 45.4349 53.3607 42.8836 52.3487C40.3323 51.3367 37.5621 51.0015 34.8426 51.3757C32.1232 51.75 29.547 52.821 27.3649 54.4845C25.1828 56.148 23.4691 58.3473 22.3905 60.8683C21.312 63.3894 20.9053 66.1464 21.2102 68.871C21.515 71.5956 22.5209 74.1949 24.13 76.4161C25.7391 78.6373 27.8966 80.4046 30.3926 81.5461L30.4145 81.6147C31.0076 82.0212 31.6755 82.3062 32.3796 82.4534V82.3794C33.2167 82.8892 36.4771 83.3907 40.0313 82.7987H40.1081C42.3614 82.4342 44.7382 81.6338 46.695 80.1209C46.695 80.1209 46.695 80.077 46.7224 79.9948C47.2255 79.6498 47.6694 79.2259 48.0371 78.7395C48.0371 78.6774 48.0371 78.6171 48.0371 78.5586C49.8961 76.775 51.2926 74.5664 52.1059 72.1234C52.9193 69.6805 53.1251 67.0765 52.7055 64.5363Z" fill="url(#paint3_linear)"/>
</g>
<path d="M39.5128 82.3009C47.9192 80.9246 53.6167 73.0033 52.2386 64.6082C50.8605 56.2131 42.9286 50.5232 34.5223 51.8994C26.116 53.2757 20.4184 61.197 21.7965 69.5921C23.1746 77.9872 31.1065 83.6771 39.5128 82.3009Z" fill="#F5F5F5"/>
<path d="M31.4028 74.1267C31.4028 74.1267 27.8349 75.0175 29.8658 81.4585C30.4408 81.856 31.0892 82.1355 31.7733 82.2808L32.6817 75.0504L31.4028 74.1267Z" fill="#4D8AF0"/>
<path d="M43.1714 72.1997C43.1714 72.1997 46.8463 71.901 46.9698 78.6599C46.5501 79.2139 46.025 79.6796 45.4246 80.0303L42.252 73.4687L43.1714 72.1997Z" fill="#4D8AF0"/>
<path d="M36.6407 68.5986C40.3667 67.9886 42.892 64.4776 42.2812 60.7565C41.6704 57.0355 38.1547 54.5135 34.4287 55.1235C30.7027 55.7335 28.1773 59.2445 28.7881 62.9656C29.399 66.6866 32.9147 69.2086 36.6407 68.5986Z" fill="#333333"/>
<path d="M43.1028 72.2107L31.3343 74.1293L31.0077 79.0108C31.0077 79.0108 30.7332 81.2939 31.6801 82.1189C32.6269 82.9439 40.4955 83.895 45.5152 80.0139C45.7899 78.6816 45.6193 77.296 45.0294 76.0698C44.0414 73.9786 44.8455 75.9383 44.8455 75.9383L43.1028 72.2107Z" fill="#4D8AF0"/>
<path d="M43.259 72.186L31.4905 74.1046L31.1639 78.9861C31.1639 78.9861 30.8895 81.2692 31.8363 82.0942C32.7832 82.9192 40.6517 83.8703 45.6714 79.9893C45.9462 78.6569 45.7755 77.2713 45.1857 76.0452C44.1976 73.9539 45.0018 75.9136 45.0018 75.9136L43.259 72.186Z" fill="#4D8AF0"/>
<path d="M43.1716 72.2L31.4031 74.1186L31.0765 79.0082C31.0765 79.0082 30.8021 81.2914 31.7489 82.1164C32.6958 82.9414 40.5643 83.8925 45.584 80.0114C45.8588 78.679 45.6881 77.2935 45.0982 76.0673C44.1102 73.976 44.9144 75.9357 44.9144 75.9357L43.1716 72.2Z" fill="#4D8AF0"/>
<path opacity="0.1" d="M34.3762 69.6324L39.0834 68.8617L39.788 73.1542C39.8673 73.637 39.7512 74.1314 39.4654 74.5287C39.1796 74.9261 38.7475 75.1938 38.2641 75.2729L37.1997 75.4472C36.7163 75.5263 36.2212 75.4104 35.8233 75.125C35.4255 74.8396 35.1574 74.408 35.0782 73.9253L34.3735 69.6328L34.3762 69.6324Z" fill="black"/>
<path d="M34.3479 69.4581L39.0551 68.6874L39.7597 72.9799C39.8389 73.4626 39.7229 73.9571 39.4371 74.3544C39.1513 74.7518 38.7192 75.0194 38.2358 75.0986L37.1714 75.2728C36.688 75.352 36.1929 75.2361 35.795 74.9507C35.3971 74.6653 35.1291 74.2337 35.0498 73.7509L34.3452 69.4585L34.3479 69.4581Z" fill="#FDA57D"/>
<path opacity="0.1" d="M34.4629 70.1358C36.0729 70.4543 37.7438 70.1859 39.1725 69.3793L39.0765 68.801L34.3696 69.5739L34.4629 70.1358Z" fill="black"/>
<path d="M36.8828 70.0615C40.6089 69.4515 43.1342 65.9405 42.5234 62.2194C41.9126 58.4984 38.3969 55.9764 34.6709 56.5864C30.9448 57.1964 28.4195 60.7074 29.0303 64.4285C29.6411 68.1495 33.1568 70.6715 36.8828 70.0615Z" fill="#FDA57D"/>
<path opacity="0.1" d="M28.9297 61.9955L41.7987 59.8906C41.7987 59.8906 39.8474 54.8803 35.039 56.0095C30.2306 57.1387 28.9297 61.9955 28.9297 61.9955Z" fill="black"/>
<path d="M28.8999 61.8227L41.7799 59.715C41.7799 59.715 39.8286 54.7047 35.0202 55.834C30.2118 56.9632 28.8999 61.8227 28.8999 61.8227Z" fill="#333333"/>
<path d="M29.3942 65.6982C29.7424 65.642 29.9391 65.068 29.8336 64.4161C29.7281 63.7642 29.3603 63.2813 29.0122 63.3375C28.6641 63.3937 28.4674 63.9677 28.5729 64.6196C28.6784 65.2714 29.0461 65.7544 29.3942 65.6982Z" fill="#FDA57D"/>
<path d="M42.4941 63.1353C42.8411 63.0785 43.036 62.5056 42.9293 61.8558C42.8226 61.206 42.4549 60.7253 42.1078 60.7821C41.7608 60.839 41.566 61.4118 41.6726 62.0616C41.7793 62.7114 42.1471 63.1921 42.4941 63.1353Z" fill="#FDA57D"/>
<g opacity="0.5">
<path opacity="0.5" d="M186.295 45.353H77.5684V195.38H186.295V45.353Z" fill="url(#paint4_linear)"/>
</g>
<path d="M184.912 46.4575H78.9517V193.168H184.912V46.4575Z" fill="white"/>
<g opacity="0.5">
<path opacity="0.5" d="M93.1025 80.0249C93.1028 77.2218 93.8298 74.4665 95.2127 72.0272C96.5955 69.5879 98.5872 67.5476 100.994 66.105C103.4 64.6624 106.14 63.8666 108.946 63.7951C111.752 63.7235 114.529 64.3787 117.006 65.6967C119.483 67.0148 121.576 68.9508 123.082 71.3165C124.588 73.6821 125.455 76.3968 125.598 79.1963C125.742 81.9957 125.157 84.7846 123.901 87.2915C122.646 89.7984 120.761 91.9379 118.432 93.5018V93.573C117.901 94.082 117.274 94.4807 116.587 94.7461L116.565 94.6749C115.805 95.3272 112.6 96.3714 108.916 96.3605H108.837C106.504 96.3605 103.974 95.9494 101.745 94.7461C101.745 94.7461 101.726 94.7023 101.696 94.6228C101.131 94.3577 100.613 94.0032 100.161 93.573L100.137 93.3894C97.9671 91.8983 96.1931 89.9026 94.9677 87.5743C93.7422 85.2461 93.1021 82.6552 93.1025 80.0249Z" fill="url(#paint5_linear)"/>
</g>
<path d="M109.358 95.7739C118.067 95.7739 125.128 88.7228 125.128 80.0249C125.128 71.3269 118.067 64.2759 109.358 64.2759C100.648 64.2759 93.5879 71.3269 93.5879 80.0249C93.5879 88.7228 100.648 95.7739 109.358 95.7739Z" fill="#F5F5F5"/>
<path d="M103.172 86.0247C103.172 86.0247 99.4145 86.3289 100.408 93.181C100.923 93.6746 101.531 94.0613 102.197 94.3185L104.311 87.1731L103.172 86.0247Z" fill="#BE7C5E"/>
<path d="M115.366 86.0247C115.366 86.0247 119.123 86.3289 118.13 93.181C117.615 93.6746 117.006 94.0613 116.34 94.3185L114.235 87.1511L115.366 86.0247Z" fill="#BE7C5E"/>
<path d="M103.334 74.8174C103.334 74.8174 103.046 75.6588 102.634 76.6318C101.739 78.7587 102.76 86.932 104.901 87.8036C107.302 88.7821 110.461 89.407 113.741 88.212C116.593 87.1732 117.471 77.8707 115.456 75.604C115.22 75.3299 114.973 75.075 114.715 74.8174H103.334Z" fill="#333333"/>
<path d="M109.369 81.3131C113.23 81.3131 116.359 78.1876 116.359 74.3321C116.359 70.4766 113.23 67.3511 109.369 67.3511C105.509 67.3511 102.379 70.4766 102.379 74.3321C102.379 78.1876 105.509 81.3131 109.369 81.3131Z" fill="#333333"/>
<path opacity="0.1" d="M115.294 86.0247H103.1L101.961 90.8952C101.961 90.8952 101.292 93.1509 102.123 94.1431C102.955 95.1353 110.722 97.391 116.431 94.3048C116.928 93.0059 116.985 91.5799 116.592 90.2456C115.942 87.9734 116.431 90.0839 116.431 90.0839L115.294 86.0247Z" fill="black"/>
<path opacity="0.1" d="M115.457 86.0247H103.257L102.118 90.8952C102.118 90.8952 101.449 93.1509 102.28 94.1431C103.112 95.1353 110.879 97.391 116.587 94.3048C117.085 93.0059 117.142 91.5799 116.749 90.2456C116.099 87.9734 116.587 90.0839 116.587 90.0839L115.457 86.0247Z" fill="black"/>
<path d="M115.366 86.0247H103.172L102.033 90.8952C102.033 90.8952 101.364 93.1509 102.195 94.1431C103.027 95.1353 110.794 97.391 116.502 94.3048C117 93.0059 117.057 91.5799 116.664 90.2456C116.014 87.9734 116.502 90.0839 116.502 90.0839L115.366 86.0247Z" fill="#3AD29F"/>
<path opacity="0.1" d="M106.913 81.9819H111.79V86.4715C111.79 86.9607 111.595 87.4299 111.249 87.7758C110.903 88.1217 110.433 88.3161 109.943 88.3161H108.757C108.267 88.3161 107.798 88.1217 107.451 87.7758C107.105 87.4299 106.91 86.9607 106.91 86.4715V81.9819H106.913Z" fill="black"/>
<path d="M106.913 81.801H111.79V86.2906C111.79 86.7798 111.595 87.249 111.249 87.5949C110.903 87.9408 110.433 88.1352 109.943 88.1352H108.757C108.267 88.1352 107.798 87.9408 107.451 87.5949C107.105 87.249 106.91 86.7798 106.91 86.2906V81.801H106.913Z" fill="#BE7C5E"/>
<path opacity="0.1" d="M106.921 82.4918C108.494 83.0738 110.224 83.0738 111.798 82.4918V81.8943H106.921V82.4918Z" fill="black"/>
<path d="M109.369 82.8289C113.23 82.8289 116.359 79.7034 116.359 75.8479C116.359 71.9924 113.23 68.8669 109.369 68.8669C105.509 68.8669 102.379 71.9924 102.379 75.8479C102.379 79.7034 105.509 82.8289 109.369 82.8289Z" fill="#BE7C5E"/>
<path d="M102.683 73.1973H116.016C116.016 73.1973 114.877 67.8198 109.838 68.1651C104.799 68.5105 102.683 73.1973 102.683 73.1973Z" fill="#333333"/>
<path d="M102.524 76.7689C102.884 76.7689 103.175 76.224 103.175 75.5519C103.175 74.8798 102.884 74.335 102.524 74.335C102.165 74.335 101.874 74.8798 101.874 75.5519C101.874 76.224 102.165 76.7689 102.524 76.7689Z" fill="#BE7C5E"/>
<path d="M116.181 76.7689C116.54 76.7689 116.831 76.224 116.831 75.5519C116.831 74.8798 116.54 74.335 116.181 74.335C115.821 74.335 115.53 74.8798 115.53 75.5519C115.53 76.224 115.821 76.7689 116.181 76.7689Z" fill="#BE7C5E"/>
<path opacity="0.1" d="M102.683 73.3756H116.016C116.016 73.3756 114.877 67.998 109.838 68.3433C104.799 68.6887 102.683 73.3756 102.683 73.3756Z" fill="black"/>
<path d="M169.557 110.073H93.0806V114.702H169.557V110.073Z" fill="#E0E0E0"/>
<path d="M169.557 121.645H93.0806V126.274H169.557V121.645Z" fill="#E0E0E0"/>
<path d="M169.559 73.0439H130.162V77.6733H169.559V73.0439Z" fill="#E0E0E0"/>
<path d="M166.082 84.616H133.636V89.2453H166.082V84.616Z" fill="#6891F9"/>
<path d="M160.288 133.217H93.0806V137.846H160.288V133.217Z" fill="#E0E0E0"/>
<path d="M151.017 144.789H93.0806V149.418H151.017V144.789Z" fill="#E0E0E0"/>
<path d="M144.066 156.364H93.0806V160.993H144.066V156.364Z" fill="#E0E0E0"/>
<path d="M157.969 167.935H93.0806V172.565H157.969V167.935Z" fill="#E0E0E0"/>
<path d="M118.572 179.507H93.0806V184.137H118.572V179.507Z" fill="#6891F9"/>
<g opacity="0.5">
<path opacity="0.5" d="M178.962 205.003C191.753 205.003 202.123 194.647 202.123 181.873C202.123 169.098 191.753 158.742 178.962 158.742C166.17 158.742 155.801 169.098 155.801 181.873C155.801 194.647 166.17 205.003 178.962 205.003Z" fill="url(#paint6_linear)"/>
</g>
<path d="M178.962 203.64C191 203.64 200.759 193.894 200.759 181.872C200.759 169.85 191 160.104 178.962 160.104C166.924 160.104 157.165 169.85 157.165 181.872C157.165 193.894 166.924 203.64 178.962 203.64Z" fill="#69F0AE"/>
<path d="M169.502 178.967L177.675 186.45L189.254 169.446L193.343 172.847L177.675 193.253L166.096 180.33L169.502 178.967Z" fill="white"/>
</g>
<defs>
<linearGradient id="paint0_linear" x1="163.849" y1="156.454" x2="186.203" y2="8.09762" gradientUnits="userSpaceOnUse">
<stop stop-color="#808080" stop-opacity="0.25"/>
<stop offset="0.54" stop-color="#808080" stop-opacity="0.12"/>
<stop offset="1" stop-color="#808080" stop-opacity="0.1"/>
</linearGradient>
<linearGradient id="paint1_linear" x1="18127.8" y1="22724.4" x2="18651.4" y2="19249.5" gradientUnits="userSpaceOnUse">
<stop stop-color="#808080" stop-opacity="0.25"/>
<stop offset="0.54" stop-color="#808080" stop-opacity="0.12"/>
<stop offset="1" stop-color="#808080" stop-opacity="0.1"/>
</linearGradient>
<linearGradient id="paint2_linear" x1="60389.5" y1="48978.3" x2="47266.9" y2="-32326" gradientUnits="userSpaceOnUse">
<stop stop-color="#808080" stop-opacity="0.25"/>
<stop offset="0.54" stop-color="#808080" stop-opacity="0.12"/>
<stop offset="1" stop-color="#808080" stop-opacity="0.1"/>
</linearGradient>
<linearGradient id="paint3_linear" x1="12458.8" y1="-1225.45" x2="11860.8" y2="-4877.99" gradientUnits="userSpaceOnUse">
<stop stop-color="#808080" stop-opacity="0.25"/>
<stop offset="0.54" stop-color="#808080" stop-opacity="0.12"/>
<stop offset="1" stop-color="#808080" stop-opacity="0.1"/>
</linearGradient>
<linearGradient id="paint4_linear" x1="52343.7" y1="106990" x2="52343.7" y2="24870.2" gradientUnits="userSpaceOnUse">
<stop stop-color="#808080" stop-opacity="0.25"/>
<stop offset="0.54" stop-color="#808080" stop-opacity="0.12"/>
<stop offset="1" stop-color="#808080" stop-opacity="0.1"/>
</linearGradient>
<linearGradient id="paint5_linear" x1="16519.1" y1="13991.1" x2="16519.1" y2="10120" gradientUnits="userSpaceOnUse">
<stop stop-color="#808080" stop-opacity="0.25"/>
<stop offset="0.54" stop-color="#808080" stop-opacity="0.12"/>
<stop offset="1" stop-color="#808080" stop-opacity="0.1"/>
</linearGradient>
<linearGradient id="paint6_linear" x1="30361" y1="34758.6" x2="30361" y2="26951.3" gradientUnits="userSpaceOnUse">
<stop stop-color="#808080" stop-opacity="0.25"/>
<stop offset="0.54" stop-color="#808080" stop-opacity="0.12"/>
<stop offset="1" stop-color="#808080" stop-opacity="0.1"/>
</linearGradient>
<clipPath id="clip0">
<rect width="240" height="205" fill="white"/>
</clipPath>
</defs>
</svg>
