<svg width="246" height="180" viewBox="0 0 246 180" fill="none" xmlns="http://www.w3.org/2000/svg">
<g clip-path="url(#clip0)">
<path d="M235.783 44.8596H113.644C101.647 44.8596 91.92 54.697 91.92 66.8314V142.882C91.9133 144.233 92.1723 145.571 92.6821 146.822C93.192 148.072 93.9427 149.209 94.8914 150.169C95.8401 151.129 96.9683 151.892 98.2114 152.414C99.4546 152.937 100.788 153.209 102.137 153.216H179.702C182.283 162.166 188.76 174.501 205.077 180L200.471 153.216H235.783C237.132 153.209 238.465 152.937 239.708 152.414C240.952 151.892 242.08 151.129 243.028 150.169C243.977 149.209 244.728 148.072 245.238 146.822C245.748 145.571 246.007 144.233 246 142.882V55.1933C246.007 53.8427 245.748 52.504 245.238 51.2537C244.728 50.0034 243.977 48.866 243.028 47.9064C242.08 46.9468 240.952 46.1838 239.708 45.661C238.465 45.1383 237.132 44.8659 235.783 44.8596Z" fill="url(#paint0_linear)"/>
<path d="M233.728 47.4231H115.173C112.404 47.4231 109.662 47.9695 107.103 49.0311C104.545 50.0926 102.22 51.6486 100.262 53.6102C98.3041 55.5717 96.7508 57.9004 95.6911 60.4632C94.6314 63.0261 94.0859 65.773 94.0859 68.547V141.66C94.0859 144.292 95.1298 146.817 96.9879 148.678C98.846 150.539 101.366 151.585 103.994 151.585H179.286C181.791 160.189 188.087 172.048 203.914 177.334L199.433 151.594H233.714C236.342 151.594 238.862 150.548 240.72 148.687C242.578 146.825 243.622 144.301 243.622 141.668V57.3569C243.624 54.7256 242.584 52.201 240.728 50.3382C238.873 48.4754 236.355 47.4269 233.728 47.4231Z" fill="#FAFAFA"/>
<path d="M203.039 66.4033H141.76V74.077H203.039V66.4033Z" fill="#E0E0E0"/>
<path d="M202.694 80.5708H179.713V88.2445H202.694V80.5708Z" fill="#E0E0E0"/>
<path d="M202.342 94.7358H157.026V102.41H202.342V94.7358Z" fill="#E0E0E0"/>
<path d="M201.997 108.904H146.422V116.577H201.997V108.904Z" fill="#E0E0E0"/>
<path d="M201.649 123.068H172.347V130.742H201.649V123.068Z" fill="#E0E0E0"/>
<path d="M10.1571 0H143.04C148.65 0 153.197 4.61953 153.197 10.3195V97.8977C153.197 103.598 148.65 108.217 143.04 108.217H65.9246C63.3571 117.156 56.9084 129.486 40.6934 134.967L45.2737 108.217H10.1712C4.56052 108.217 0.0141931 103.598 0.0141931 97.8977V10.3138C3.89162e-05 4.61953 4.54637 0 10.1571 0Z" fill="url(#paint1_linear)"/>
<path d="M11.6833 2.68555H141.401C144.029 2.68555 146.549 3.73124 148.407 5.5926C150.265 7.45396 151.309 9.97851 151.309 12.6109V96.9222C151.309 99.5546 150.265 102.079 148.407 103.941C146.549 105.802 144.029 106.848 141.401 106.848H66.126C63.6208 115.451 57.325 127.311 41.4977 132.597L45.9676 106.848H11.6833C9.05558 106.848 6.53546 105.802 4.67736 103.941C2.81926 102.079 1.77539 99.5546 1.77539 96.9222V12.6194C1.77428 11.3153 2.02973 10.0237 2.52715 8.81851C3.02457 7.61333 3.75421 6.51816 4.67436 5.59561C5.59451 4.67306 6.68712 3.94121 7.88976 3.44188C9.0924 2.94255 10.3815 2.68555 11.6833 2.68555Z" fill="white"/>
<path d="M107.184 18.8892H45.9048V26.5629H107.184V18.8892Z" fill="#6891F9"/>
<path d="M69.2337 33.0542H46.2529V40.7279H69.2337V33.0542Z" fill="#6891F9"/>
<path d="M91.9172 47.219H46.6011V54.8927H91.9172V47.219Z" fill="#6891F9"/>
<path d="M102.524 61.3867H46.9492V69.0604H102.524V61.3867Z" fill="#6891F9"/>
<path d="M76.5999 75.5515H47.2979V83.2252H76.5999V75.5515Z" fill="#6891F9"/>
</g>
<defs>
<linearGradient id="paint0_linear" x1="168.959" y1="180" x2="168.959" y2="44.8596" gradientUnits="userSpaceOnUse">
<stop offset="0.01" stop-color="#808080" stop-opacity="0.25"/>
<stop offset="0.54" stop-color="#808080" stop-opacity="0.12"/>
<stop offset="1" stop-color="#808080" stop-opacity="0.1"/>
</linearGradient>
<linearGradient id="paint1_linear" x1="66801.3" y1="82137.1" x2="66801.3" y2="17900.7" gradientUnits="userSpaceOnUse">
<stop offset="0.01" stop-color="#808080" stop-opacity="0.25"/>
<stop offset="0.54" stop-color="#808080" stop-opacity="0.12"/>
<stop offset="1" stop-color="#808080" stop-opacity="0.1"/>
</linearGradient>
<clipPath id="clip0">
<rect width="246" height="180" fill="white"/>
</clipPath>
</defs>
</svg>
