<svg width="228" height="196" viewBox="0 0 228 196" fill="none" xmlns="http://www.w3.org/2000/svg">
<g clip-path="url(#clip0)">
<path d="M64.9609 133.393H0V196H64.9609V133.393Z" fill="url(#paint0_linear)"/>
<path d="M63.942 134.926H1.01904V194.722H63.942V134.926Z" fill="#F5F5F5"/>
<g opacity="0.5">
<path opacity="0.5" d="M38.0468 145.408V142.342H26.9142V145.408H19.124V160.485H45.837V145.408H38.0468ZM28.3077 143.453H36.6558V145.408H28.3077V143.453Z" fill="url(#paint1_linear)"/>
</g>
<path opacity="0.6" d="M44.7083 145.914H20.2524V159.713H44.7083V145.914Z" fill="#6891F9"/>
<path opacity="0.6" d="M27.3853 143.103V146.681H28.659V144.125H36.3015V146.681H37.5752V143.103H27.3853Z" fill="#6891F9"/>
<g opacity="0.6">
<path opacity="0.6" d="M44.3264 170.446H21.6538V173.512H44.3264V170.446Z" fill="#6891F9"/>
</g>
<path d="M51.8414 176.068H13.1196V179.134H51.8414V176.068Z" fill="#BDBDBD"/>
<path d="M146.226 131.604H81.5195V196H146.226V131.604Z" fill="url(#paint2_linear)"/>
<path d="M145.461 134.926H82.5386V194.722H145.461V134.926Z" fill="#F5F5F5"/>
<g opacity="0.5">
<path opacity="0.5" d="M119.566 145.408V142.342H108.434V145.408H100.644V160.485H127.356V145.408H119.566ZM109.827 143.453H118.175V145.408H109.827V143.453Z" fill="url(#paint3_linear)"/>
</g>
<path opacity="0.6" d="M126.228 145.914H101.772V159.713H126.228V145.914Z" fill="#6891F9"/>
<path d="M108.905 143.103V146.681H110.179V144.125H117.821V146.681H119.095V143.103H108.905Z" fill="#6891F9"/>
<g opacity="0.6">
<path opacity="0.6" d="M125.846 170.446H103.173V173.512H125.846V170.446Z" fill="#6891F9"/>
</g>
<path d="M133.361 176.068H94.6392V179.134H133.361V176.068Z" fill="#BDBDBD"/>
<path d="M228 133.904H163.039V196H228V133.904Z" fill="url(#paint4_linear)"/>
<path d="M226.981 134.926H164.058V194.722H226.981V134.926Z" fill="#F5F5F5"/>
<g opacity="0.5">
<path opacity="0.5" d="M201.086 145.408V142.342H189.953V145.408H182.163V160.485H208.876V145.408H201.086ZM191.347 143.453H199.695V145.408H191.347V143.453Z" fill="url(#paint5_linear)"/>
</g>
<path opacity="0.6" d="M207.747 145.914H183.292V159.713H207.747V145.914Z" fill="#6891F9"/>
<path opacity="0.6" d="M190.424 143.103V146.681H191.698V144.125H199.341V146.681H200.614V143.103H190.424Z" fill="#6891F9"/>
<g opacity="0.6">
<path opacity="0.6" d="M207.365 170.446H184.693V173.512H207.365V170.446Z" fill="#6891F9"/>
</g>
<path d="M214.88 176.068H176.159V179.134H214.88V176.068Z" fill="#BDBDBD"/>
<g opacity="0.5">
<path opacity="0.5" d="M182.454 0H53.4463V152.047H182.454V0Z" fill="url(#paint6_linear)"/>
</g>
<path d="M179.707 2.448H57.4102V148.681H179.707V2.448Z" fill="white"/>
<g opacity="0.5">
<path opacity="0.5" d="M125.209 25.7023V22.0276H111.896V25.7023H102.569V43.7486H134.548V25.7023H125.209ZM113.549 23.3641H123.543V25.7023H113.562L113.549 23.3641Z" fill="url(#paint7_linear)"/>
</g>
<path d="M133.198 26.3105H103.919V42.8313H133.198V26.3105Z" fill="#6891F9"/>
<path d="M112.458 22.9451V27.2279H113.984V24.1691H123.132V27.2279H124.658V22.9451H112.458Z" fill="#6891F9"/>
<path d="M161.715 66.6069H75.709V70.2791H161.715V66.6069Z" fill="#E0E0E0"/>
<path d="M161.715 90.7759H75.709V94.448H161.715V90.7759Z" fill="#E0E0E0"/>
<path d="M161.715 97.2H75.709V100.872H161.715V97.2Z" fill="#E0E0E0"/>
<path d="M112 84.3489H75.709V88.021H112V84.3489Z" fill="#E0E0E0"/>
<path opacity="0.6" d="M161.714 84.3489H134.571V88.021H161.714V84.3489Z" fill="#3AD29F"/>
<path d="M133.045 112.19H105.901V115.862H133.045V112.19Z" fill="#6891F9"/>
<g opacity="0.5">
<path opacity="0.5" d="M55.5351 49.5749C62.2884 49.5749 67.763 44.0832 67.763 37.3089C67.763 30.5346 62.2884 25.043 55.5351 25.043C48.7818 25.043 43.3071 30.5346 43.3071 37.3089C43.3071 44.0832 48.7818 49.5749 55.5351 49.5749Z" fill="url(#paint8_linear)"/>
</g>
<path d="M55.5354 48.8544C61.892 48.8544 67.0449 43.6853 67.0449 37.309C67.0449 30.9327 61.892 25.7637 55.5354 25.7637C49.1789 25.7637 44.0259 30.9327 44.0259 37.309C44.0259 43.6853 49.1789 48.8544 55.5354 48.8544Z" fill="#69F0AE"/>
<path d="M50.7101 35.5662L55.0256 39.5348L61.1396 30.5142L63.2973 32.3183L55.0256 43.1404L48.9116 36.2868L50.7101 35.5662Z" fill="white"/>
</g>
<defs>
<linearGradient id="paint0_linear" x1="32.4805" y1="196" x2="32.4805" y2="133.393" gradientUnits="userSpaceOnUse">
<stop stop-color="#808080" stop-opacity="0.25"/>
<stop offset="0.54" stop-color="#808080" stop-opacity="0.12"/>
<stop offset="1" stop-color="#808080" stop-opacity="0.1"/>
</linearGradient>
<linearGradient id="paint1_linear" x1="7498.75" y1="12743" x2="7498.75" y2="11454.8" gradientUnits="userSpaceOnUse">
<stop stop-color="#808080" stop-opacity="0.25"/>
<stop offset="0.54" stop-color="#808080" stop-opacity="0.12"/>
<stop offset="1" stop-color="#808080" stop-opacity="0.1"/>
</linearGradient>
<linearGradient id="paint2_linear" x1="29005.2" y1="131.604" x2="29005.2" y2="33295.7" gradientUnits="userSpaceOnUse">
<stop stop-color="#808080" stop-opacity="0.25"/>
<stop offset="0.54" stop-color="#808080" stop-opacity="0.12"/>
<stop offset="1" stop-color="#808080" stop-opacity="0.1"/>
</linearGradient>
<linearGradient id="paint3_linear" x1="16128.4" y1="12743" x2="16128.4" y2="11454.8" gradientUnits="userSpaceOnUse">
<stop stop-color="#808080" stop-opacity="0.25"/>
<stop offset="0.54" stop-color="#808080" stop-opacity="0.12"/>
<stop offset="1" stop-color="#808080" stop-opacity="0.1"/>
</linearGradient>
<linearGradient id="paint4_linear" x1="50020.5" y1="133.904" x2="50020.5" y2="32672.4" gradientUnits="userSpaceOnUse">
<stop stop-color="#808080" stop-opacity="0.25"/>
<stop offset="0.54" stop-color="#808080" stop-opacity="0.12"/>
<stop offset="1" stop-color="#808080" stop-opacity="0.1"/>
</linearGradient>
<linearGradient id="paint5_linear" x1="24758.1" y1="12743" x2="24758.1" y2="11454.8" gradientUnits="userSpaceOnUse">
<stop stop-color="#808080" stop-opacity="0.25"/>
<stop offset="0.54" stop-color="#808080" stop-opacity="0.12"/>
<stop offset="1" stop-color="#808080" stop-opacity="0.1"/>
</linearGradient>
<linearGradient id="paint6_linear" x1="59783.8" y1="90467.9" x2="59783.8" y2="0" gradientUnits="userSpaceOnUse">
<stop stop-color="#808080" stop-opacity="0.25"/>
<stop offset="0.54" stop-color="#808080" stop-opacity="0.12"/>
<stop offset="1" stop-color="#808080" stop-opacity="0.1"/>
</linearGradient>
<linearGradient id="paint7_linear" x1="19861.8" y1="5185.11" x2="19861.8" y2="3338.82" gradientUnits="userSpaceOnUse">
<stop stop-color="#808080" stop-opacity="0.25"/>
<stop offset="0.54" stop-color="#808080" stop-opacity="0.12"/>
<stop offset="1" stop-color="#808080" stop-opacity="0.1"/>
</linearGradient>
<linearGradient id="paint8_linear" x1="5374.68" y1="4784.24" x2="5374.68" y2="2429.17" gradientUnits="userSpaceOnUse">
<stop stop-color="#808080" stop-opacity="0.25"/>
<stop offset="0.54" stop-color="#808080" stop-opacity="0.12"/>
<stop offset="1" stop-color="#808080" stop-opacity="0.1"/>
</linearGradient>
<clipPath id="clip0">
<rect width="228" height="196" fill="white"/>
</clipPath>
</defs>
</svg>
