<svg width="847" height="622" viewBox="0 0 847 622" fill="none" xmlns="http://www.w3.org/2000/svg">
<g clip-path="url(#clip0)">
<path opacity="0.1" d="M479.088 84.6829C424.796 84.7602 372.538 68.3891 322.554 50.2025C272.569 32.0158 222.97 11.6505 169.688 3.02074C135.42 -2.52641 96.4538 -2.01651 69.6675 18.1248C43.8835 37.5012 36.4171 69.5712 32.8146 99.1998C30.1054 121.489 28.8562 144.883 39.0027 165.271C46.0479 179.425 58.1047 191.091 66.6025 204.58C96.265 251.507 78.4268 311.452 49.5996 359.468C36.083 381.997 20.2494 403.59 10.0303 427.409C-0.188906 451.228 -4.37971 478.237 6.04283 501.747C16.3709 525.048 39.7 541.96 64.7359 553.51C115.578 577.012 174.772 582.05 232.375 583.989C359.886 588.292 487.644 579.516 615.06 570.739C662.212 567.494 709.575 564.226 755.754 554.824C781.392 549.609 807.794 541.867 825.973 524.901C849.048 503.362 853.769 468.194 836.977 442.915C808.818 400.515 734.567 392.519 714.376 346.643C703.242 321.387 712.843 292.423 726.985 268.079C757.315 215.845 809.522 169.057 810.401 110.634C811.004 70.5137 783.855 31.3746 743.305 13.9374C700.801 -4.32653 642.849 0.370781 613.07 34.4109C582.449 69.4785 527.024 84.6288 479.088 84.6829Z" fill="#6891F9"/>
<path d="M720.884 498.595C720.884 498.595 711.957 492.329 703.111 496.787C703.111 496.787 705.835 502.365 717.034 501.84L720.884 498.595Z" fill="#6891F9"/>
<path d="M722.017 498.927C722.017 498.927 724.733 509.929 717.92 517.415C717.92 517.415 713.824 512.88 717.92 501.77L722.017 498.927Z" fill="#6891F9"/>
<path d="M733.115 488.366C733.115 488.366 732.454 479.01 712.589 482.116C712.589 482.116 712.495 488.15 719.468 491.008C726.44 493.867 729.636 491.456 733.115 488.366Z" fill="#6891F9"/>
<path d="M734.364 488.304C734.364 488.304 742.76 491.17 735.272 510.987C735.272 510.987 729.73 509.674 728.735 501.786C727.74 493.898 730.689 491.178 734.364 488.304Z" fill="#6891F9"/>
<path d="M745.578 475.031C745.578 475.031 746.718 459.634 726.418 461.21C726.418 461.21 724.965 475.116 741.997 478.732L745.578 475.031Z" fill="#6891F9"/>
<path d="M758.993 457.648C758.993 457.648 756.211 440.195 735.918 445.395C735.918 445.395 735.846 460.484 755.681 461.805L758.993 457.648Z" fill="#6891F9"/>
<path d="M768.798 439.678C768.798 439.678 764.135 422.681 744.031 427.765C744.031 427.765 748.818 443.054 767.462 442.815L768.798 439.678Z" fill="#6891F9"/>
<path d="M778.109 422.125C778.109 422.125 773.555 404.487 754.141 409.763C754.141 409.763 760.62 426.521 776.824 425.107L778.109 422.125Z" fill="#6891F9"/>
<path d="M784.109 405.452C784.109 405.452 780.608 383.882 762.508 388.656C762.508 388.656 767.767 408.28 782.78 408.597L784.109 405.452Z" fill="#6891F9"/>
<path d="M789.738 385.311C789.738 385.311 785.533 363.57 767.222 369.859C767.222 369.859 774.398 390.41 788.438 388.285L789.738 385.311Z" fill="#6891F9"/>
<path d="M793.195 366.568C793.195 366.568 786.52 344.82 772.364 345.407C772.364 345.407 779.184 368.376 792.011 370.902L793.195 366.568Z" fill="#6891F9"/>
<path d="M795.432 348.273C795.432 348.273 788.169 322.098 776.649 324.115C776.649 324.115 781.676 344.125 795.025 352.353L795.432 348.273Z" fill="#6891F9"/>
<path d="M796.696 326.448C796.696 326.448 789.883 304.638 778.538 303.765C778.538 303.765 783.172 325.227 796.471 332.118L796.696 326.448Z" fill="#6891F9"/>
<path d="M798.069 306.083C798.069 306.083 789.578 284.249 782.09 283.755C782.09 283.755 785.779 305.256 797.342 309.667L798.069 306.083Z" fill="#6891F9"/>
<path d="M799.005 287.139C799.005 287.139 793.783 263.428 786.28 261.458C786.28 261.458 787.304 280.858 798.25 288.916L799.005 287.139Z" fill="#6891F9"/>
<path d="M801.838 262.323C801.838 262.323 796.347 243.418 790.268 240.536C790.268 240.536 791.466 262.825 800.436 266.943L801.838 262.323Z" fill="#6891F9"/>
<path d="M804.184 246.099L805.288 212.77C805.288 212.77 793.921 237.894 803.363 251.948L804.184 246.099Z" fill="#6891F9"/>
<path d="M812.958 212.947C812.958 212.947 821.143 188.611 823.126 187.251C823.126 187.251 807.075 203.043 808.644 223.354L812.958 212.947Z" fill="#6891F9"/>
<path d="M746.13 474.915C746.13 474.915 760.525 472.914 760.097 494.555C760.097 494.555 747.089 496.81 742.84 478.91L746.13 474.915Z" fill="#6891F9"/>
<path d="M759.676 457.061C759.676 457.061 776.308 457.007 774.928 479.157C774.928 479.157 760.961 481.815 756.356 461.248L759.676 457.061Z" fill="#6891F9"/>
<path d="M768.958 441.107C768.958 441.107 784.058 433.574 793.718 453.02C793.718 453.02 779.773 459.294 767.622 444.251L768.958 441.107Z" fill="#6891F9"/>
<path d="M778.444 422.287C778.444 422.287 793.907 414.275 802.986 433.265C802.986 433.265 786.876 439.168 777.166 425.292L778.444 422.287Z" fill="#6891F9"/>
<path d="M783.913 405.924C783.913 405.924 798.795 390.804 810.67 406.094C810.67 406.094 795.468 418.54 783.23 409.292L783.913 405.924Z" fill="#6891F9"/>
<path d="M788.895 384.793C788.895 384.793 803.865 369.342 815.645 385.504C815.645 385.504 798.846 398.198 788.358 388.038L788.895 384.793Z" fill="#6891F9"/>
<path d="M791.691 365.95C791.691 365.95 803.225 346.636 816.807 350.947C816.807 350.947 804.838 371.397 791.822 370.485L791.691 365.95Z" fill="#6891F9"/>
<path d="M795.091 348.15C795.091 348.15 806.712 323.829 817.708 328.063C817.708 328.063 809.326 346.759 794.793 352.252L795.091 348.15Z" fill="#6891F9"/>
<path d="M795.897 325.181C795.897 325.181 807.845 306.036 819.037 308.377C819.037 308.377 809.268 327.792 794.735 330.72L795.897 325.181Z" fill="#6891F9"/>
<path d="M796.827 305.658C796.827 305.658 806.087 284.172 813.612 284.025C813.612 284.025 809.167 305.356 797.451 309.304L796.827 305.658Z" fill="#6891F9"/>
<path d="M798.643 286.675C798.643 286.675 808.934 264.919 816.669 264.873C816.669 264.873 811.404 283.477 798.984 288.583L798.643 286.675Z" fill="#6891F9"/>
<path d="M800.189 263.683C800.189 263.683 807.888 245.682 814.265 243.642C814.265 243.642 810.416 265.584 801.039 268.458L800.189 263.683Z" fill="#6891F9"/>
<path d="M805.099 245.442L822.305 217.56C822.305 217.56 817.897 245.064 802.586 250.781L805.099 245.442Z" fill="#6891F9"/>
<path d="M816.909 215.196C816.909 215.196 836.904 200.517 837.63 198.145C837.63 198.145 827.462 218.703 808.578 222.334L816.909 215.196Z" fill="#6891F9"/>
<path d="M818.107 208.59C818.107 208.59 841.066 185.111 846.927 185.134C846.927 185.134 827.992 186.054 817.555 207.338L818.107 208.59Z" fill="#6891F9"/>
<path d="M800.415 267.168L801.25 267.283C805.564 231.366 811.854 210.112 818.957 207.509L818.681 206.659C811.149 209.44 804.816 230.369 800.415 267.168Z" fill="#444053"/>
<path d="M794.066 353.063L795.33 353.171C795.599 349.818 795.802 346.388 795.94 342.966C797.146 313.237 799.013 285.933 801.468 265.468L800.741 264.502C798.279 285.014 795.882 313.136 794.677 342.912C794.539 346.311 794.335 349.726 794.066 353.063Z" fill="#444053"/>
<path d="M697.322 515.731C697.54 515.631 719.787 505.062 742.876 479.86C756.404 465.1 767.644 448.15 776.178 429.642C786.855 406.519 793.362 378.103 795.541 350.499L794.227 351.155C789.324 413.116 762.806 455.454 741.722 478.516C718.857 503.493 696.858 513.954 696.64 514.055L697.322 515.731Z" fill="#444053"/>
<path d="M754.926 65.8474H57.0297C55.3808 65.8474 53.7994 66.5442 52.6335 67.7844C51.4675 69.0246 50.8125 70.7068 50.8125 72.4607V91.729H761.143V72.4607C761.143 70.7068 760.488 69.0246 759.322 67.7844C758.156 66.5442 756.575 65.8474 754.926 65.8474Z" fill="#3F3D56"/>
<path d="M50.8125 91.729V525.334C50.8125 528.871 52.1333 532.263 54.4842 534.763C56.8352 537.264 60.0238 538.669 63.3486 538.669H748.607C751.932 538.669 755.12 537.264 757.471 534.763C759.822 532.263 761.143 528.871 761.143 525.334V91.729H50.8125Z" fill="white"/>
<path opacity="0.8" d="M62.063 81.6853C63.6675 81.6853 64.9682 80.3017 64.9682 78.595C64.9682 76.8882 63.6675 75.5046 62.063 75.5046C60.4584 75.5046 59.1577 76.8882 59.1577 78.595C59.1577 80.3017 60.4584 81.6853 62.063 81.6853Z" fill="#FA5959"/>
<path opacity="0.8" d="M70.0527 81.6853C71.6572 81.6853 72.9579 80.3017 72.9579 78.595C72.9579 76.8882 71.6572 75.5046 70.0527 75.5046C68.4482 75.5046 67.1475 76.8882 67.1475 78.595C67.1475 80.3017 68.4482 81.6853 70.0527 81.6853Z" fill="#FED253"/>
<path opacity="0.8" d="M78.042 81.6853C79.6465 81.6853 80.9472 80.3017 80.9472 78.595C80.9472 76.8882 79.6465 75.5046 78.042 75.5046C76.4374 75.5046 75.1367 76.8882 75.1367 78.595C75.1367 80.3017 76.4374 81.6853 78.042 81.6853Z" fill="#8CCF4D"/>
<path opacity="0.05" d="M687.72 164.027H116.841V431.048H687.72V164.027Z" fill="black"/>
<path d="M683.362 166.052H121.199V427.185H683.362V166.052Z" fill="#3F3D56"/>
<path d="M274.45 233.259C263.389 233.259 252.576 236.748 243.38 243.284C234.183 249.821 227.014 259.112 222.782 269.982C218.549 280.853 217.441 292.814 219.599 304.354C221.757 315.893 227.083 326.493 234.905 334.813C242.726 343.133 252.691 348.798 263.54 351.094C274.388 353.389 285.633 352.211 295.852 347.708C306.071 343.206 314.806 335.581 320.951 325.798C327.096 316.015 330.376 304.514 330.376 292.748C330.376 284.936 328.929 277.2 326.119 269.982C323.308 262.765 319.189 256.207 313.996 250.683C308.803 245.159 302.637 240.777 295.852 237.787C289.067 234.798 281.795 233.259 274.45 233.259ZM284.481 294.177V322.345H264.71V294.177C261.975 291.974 259.958 288.913 258.946 285.425C257.934 281.938 257.977 278.2 259.069 274.74C260.162 271.28 262.248 268.272 265.034 266.142C267.82 264.011 271.164 262.864 274.596 262.864C278.027 262.864 281.371 264.011 284.157 266.142C286.943 268.272 289.029 271.28 290.122 274.74C291.214 278.2 291.257 281.938 290.245 285.425C289.233 288.913 287.216 291.974 284.481 294.177Z" fill="#6891F9"/>
<path opacity="0.05" d="M274.45 233.259C263.389 233.259 252.576 236.748 243.38 243.284C234.183 249.821 227.014 259.112 222.782 269.982C218.549 280.853 217.441 292.814 219.599 304.354C221.757 315.893 227.083 326.493 234.905 334.813C242.726 343.133 252.691 348.798 263.54 351.094C274.388 353.389 285.633 352.211 295.852 347.708C306.071 343.206 314.806 335.581 320.951 325.798C327.096 316.015 330.376 304.514 330.376 292.748C330.376 284.936 328.929 277.2 326.119 269.982C323.308 262.765 319.189 256.207 313.996 250.683C308.803 245.159 302.637 240.777 295.852 237.787C289.067 234.798 281.795 233.259 274.45 233.259ZM284.481 294.177V322.345H264.71V294.177C261.975 291.974 259.958 288.913 258.946 285.425C257.934 281.938 257.977 278.2 259.069 274.74C260.162 271.28 262.248 268.272 265.034 266.142C267.82 264.011 271.164 262.864 274.596 262.864C278.027 262.864 281.371 264.011 284.157 266.142C286.943 268.272 289.029 271.28 290.122 274.74C291.214 278.2 291.257 281.938 290.245 285.425C289.233 288.913 287.216 291.974 284.481 294.177Z" fill="black"/>
<path d="M274.451 216.262C260.229 216.262 246.327 220.748 234.502 229.152C222.678 237.556 213.462 249.502 208.019 263.478C202.577 277.454 201.153 292.832 203.928 307.669C206.702 322.506 213.55 336.135 223.606 346.831C233.662 357.528 246.475 364.813 260.423 367.764C274.371 370.715 288.828 369.2 301.967 363.411C315.106 357.622 326.336 347.819 334.237 335.241C342.138 322.663 346.355 307.875 346.355 292.748C346.355 272.462 338.78 253.008 325.295 238.664C311.81 224.32 293.521 216.262 274.451 216.262ZM287.343 294.586V330.797H261.922V294.586C258.403 291.754 255.809 287.817 254.507 283.332C253.205 278.847 253.26 274.04 254.664 269.59C256.069 265.14 258.752 261.271 262.335 258.531C265.918 255.79 270.219 254.316 274.632 254.316C279.045 254.316 283.347 255.79 286.929 258.531C290.512 261.271 293.195 265.14 294.6 269.59C296.004 274.04 296.059 278.847 294.757 283.332C293.455 287.817 290.861 291.754 287.343 294.586Z" fill="#6891F9"/>
<path d="M608.553 282.712H376.134V308.98H608.553V282.712Z" fill="white"/>
<path d="M608.553 330.612H558.438V356.88H608.553V330.612Z" fill="#6891F9"/>
<path d="M399.012 295.452H394.807L398.548 291.481C398.615 291.407 398.652 291.309 398.652 291.206C398.652 291.104 398.615 291.006 398.548 290.932C398.514 290.896 398.474 290.867 398.429 290.848C398.385 290.828 398.338 290.818 398.29 290.818C398.242 290.818 398.194 290.828 398.15 290.848C398.106 290.867 398.066 290.896 398.032 290.932L394.291 294.911V290.43C394.291 290.328 394.253 290.229 394.185 290.157C394.117 290.084 394.025 290.044 393.928 290.044C393.833 290.046 393.741 290.087 393.674 290.159C393.606 290.231 393.567 290.328 393.565 290.43V294.911L389.832 290.909C389.798 290.873 389.758 290.844 389.714 290.824C389.669 290.805 389.622 290.795 389.574 290.795C389.526 290.795 389.479 290.805 389.434 290.824C389.39 290.844 389.35 290.873 389.316 290.909C389.249 290.983 389.212 291.081 389.212 291.183C389.212 291.286 389.249 291.384 389.316 291.458L393.057 295.429H388.844C388.748 295.431 388.657 295.472 388.589 295.544C388.522 295.616 388.483 295.713 388.481 295.815C388.481 295.917 388.519 296.016 388.587 296.088C388.655 296.16 388.748 296.201 388.844 296.201H393.057L389.316 300.18C389.249 300.253 389.212 300.352 389.212 300.454C389.212 300.557 389.249 300.655 389.316 300.728C389.386 300.798 389.478 300.837 389.574 300.837C389.67 300.837 389.762 300.798 389.832 300.728L393.565 296.75V301.223C393.565 301.325 393.603 301.424 393.671 301.496C393.74 301.569 393.832 301.609 393.928 301.609C394.025 301.609 394.117 301.569 394.185 301.496C394.253 301.424 394.291 301.325 394.291 301.223V296.75L398.032 300.728C398.102 300.798 398.194 300.837 398.29 300.837C398.385 300.837 398.478 300.798 398.548 300.728C398.615 300.655 398.652 300.557 398.652 300.454C398.652 300.352 398.615 300.253 398.548 300.18L394.807 296.201H399.012C399.109 296.201 399.201 296.16 399.269 296.088C399.337 296.016 399.376 295.917 399.376 295.815C399.37 295.717 399.329 295.624 399.262 295.557C399.194 295.489 399.105 295.452 399.012 295.452Z" fill="#6891F9"/>
<path d="M414.265 295.452H410.06L413.8 291.481C413.867 291.407 413.904 291.309 413.904 291.206C413.904 291.104 413.867 291.006 413.8 290.932C413.766 290.896 413.726 290.867 413.682 290.848C413.638 290.828 413.59 290.818 413.542 290.818C413.494 290.818 413.447 290.828 413.403 290.848C413.358 290.867 413.318 290.896 413.284 290.932L409.544 294.911V290.43C409.544 290.328 409.506 290.229 409.437 290.157C409.369 290.084 409.277 290.044 409.181 290.044C409.085 290.046 408.994 290.087 408.926 290.159C408.858 290.231 408.819 290.328 408.818 290.43V294.911L405.084 290.909C405.051 290.873 405.01 290.844 404.966 290.824C404.922 290.805 404.874 290.795 404.826 290.795C404.779 290.795 404.731 290.805 404.687 290.824C404.643 290.844 404.602 290.873 404.569 290.909C404.502 290.983 404.464 291.081 404.464 291.183C404.464 291.286 404.502 291.384 404.569 291.458L408.309 295.429H404.097C404.001 295.431 403.909 295.472 403.842 295.544C403.774 295.616 403.735 295.713 403.733 295.815C403.733 295.917 403.772 296.016 403.84 296.088C403.908 296.16 404 296.201 404.097 296.201H408.309L404.569 300.18C404.502 300.253 404.464 300.352 404.464 300.454C404.464 300.557 404.502 300.655 404.569 300.728C404.639 300.798 404.731 300.837 404.826 300.837C404.922 300.837 405.014 300.798 405.084 300.728L408.818 296.75V301.223C408.818 301.325 408.856 301.424 408.924 301.496C408.992 301.569 409.084 301.609 409.181 301.609C409.277 301.609 409.369 301.569 409.437 301.496C409.506 301.424 409.544 301.325 409.544 301.223V296.75L413.284 300.728C413.354 300.798 413.446 300.837 413.542 300.837C413.638 300.837 413.73 300.798 413.8 300.728C413.867 300.655 413.904 300.557 413.904 300.454C413.904 300.352 413.867 300.253 413.8 300.18L410.06 296.201H414.265C414.361 296.201 414.454 296.16 414.522 296.088C414.59 296.016 414.628 295.917 414.628 295.815C414.622 295.717 414.582 295.624 414.514 295.557C414.447 295.489 414.358 295.452 414.265 295.452Z" fill="#6891F9"/>
<path d="M429.517 295.452H425.312L429.053 291.481C429.12 291.407 429.157 291.309 429.157 291.206C429.157 291.104 429.12 291.006 429.053 290.932C429.019 290.896 428.979 290.867 428.934 290.848C428.89 290.828 428.843 290.818 428.795 290.818C428.747 290.818 428.699 290.828 428.655 290.848C428.611 290.867 428.571 290.896 428.537 290.932L424.796 294.911V290.43C424.796 290.328 424.758 290.229 424.69 290.157C424.622 290.084 424.529 290.044 424.433 290.044C424.337 290.046 424.246 290.087 424.178 290.159C424.111 290.231 424.072 290.328 424.07 290.43V294.911L420.337 290.909C420.303 290.873 420.263 290.844 420.219 290.824C420.174 290.805 420.127 290.795 420.079 290.795C420.031 290.795 419.984 290.805 419.939 290.824C419.895 290.844 419.855 290.873 419.821 290.909C419.754 290.983 419.717 291.081 419.717 291.183C419.717 291.286 419.754 291.384 419.821 291.458L423.562 295.429H419.349C419.253 295.431 419.162 295.472 419.094 295.544C419.027 295.616 418.988 295.713 418.986 295.815C418.986 295.917 419.024 296.016 419.092 296.088C419.16 296.16 419.253 296.201 419.349 296.201H423.562L419.821 300.18C419.754 300.253 419.717 300.352 419.717 300.454C419.717 300.557 419.754 300.655 419.821 300.728C419.891 300.798 419.983 300.837 420.079 300.837C420.175 300.837 420.267 300.798 420.337 300.728L424.07 296.75V301.223C424.07 301.325 424.108 301.424 424.176 301.496C424.244 301.569 424.337 301.609 424.433 301.609C424.529 301.609 424.622 301.569 424.69 301.496C424.758 301.424 424.796 301.325 424.796 301.223V296.75L428.537 300.728C428.607 300.798 428.699 300.837 428.795 300.837C428.89 300.837 428.983 300.798 429.053 300.728C429.12 300.655 429.157 300.557 429.157 300.454C429.157 300.352 429.12 300.253 429.053 300.18L425.312 296.201H429.517C429.614 296.201 429.706 296.16 429.774 296.088C429.842 296.016 429.881 295.917 429.881 295.815C429.875 295.717 429.834 295.624 429.767 295.557C429.699 295.489 429.61 295.452 429.517 295.452Z" fill="#6891F9"/>
<path d="M444.77 295.452H440.564L444.305 291.481C444.372 291.407 444.409 291.309 444.409 291.206C444.409 291.104 444.372 291.006 444.305 290.932C444.271 290.896 444.231 290.867 444.187 290.848C444.142 290.828 444.095 290.818 444.047 290.818C443.999 290.818 443.952 290.828 443.907 290.848C443.863 290.867 443.823 290.896 443.789 290.932L440.049 294.911V290.43C440.049 290.328 440.01 290.229 439.942 290.157C439.874 290.084 439.782 290.044 439.686 290.044C439.59 290.046 439.499 290.087 439.431 290.159C439.363 290.231 439.324 290.328 439.322 290.43V294.911L435.589 290.909C435.555 290.873 435.515 290.844 435.471 290.824C435.427 290.805 435.379 290.795 435.331 290.795C435.283 290.795 435.236 290.805 435.192 290.824C435.147 290.844 435.107 290.873 435.074 290.909C435.007 290.983 434.969 291.081 434.969 291.183C434.969 291.286 435.007 291.384 435.074 291.458L438.814 295.429H434.601C434.506 295.431 434.414 295.472 434.347 295.544C434.279 295.616 434.24 295.713 434.238 295.815C434.238 295.917 434.277 296.016 434.345 296.088C434.413 296.16 434.505 296.201 434.601 296.201H438.814L435.074 300.18C435.007 300.253 434.969 300.352 434.969 300.454C434.969 300.557 435.007 300.655 435.074 300.728C435.143 300.798 435.236 300.837 435.331 300.837C435.427 300.837 435.519 300.798 435.589 300.728L439.322 296.75V301.223C439.322 301.325 439.361 301.424 439.429 301.496C439.497 301.569 439.589 301.609 439.686 301.609C439.782 301.609 439.874 301.569 439.942 301.496C440.01 301.424 440.049 301.325 440.049 301.223V296.75L443.789 300.728C443.859 300.798 443.951 300.837 444.047 300.837C444.143 300.837 444.235 300.798 444.305 300.728C444.372 300.655 444.409 300.557 444.409 300.454C444.409 300.352 444.372 300.253 444.305 300.18L440.564 296.201H444.77C444.866 296.201 444.958 296.16 445.027 296.088C445.095 296.016 445.133 295.917 445.133 295.815C445.127 295.717 445.087 295.624 445.019 295.557C444.952 295.489 444.862 295.452 444.77 295.452Z" fill="#6891F9"/>
<path d="M460.023 295.452H455.817L459.558 291.481C459.625 291.407 459.662 291.309 459.662 291.206C459.662 291.104 459.625 291.006 459.558 290.932C459.524 290.896 459.484 290.867 459.44 290.848C459.395 290.828 459.348 290.818 459.3 290.818C459.252 290.818 459.205 290.828 459.16 290.848C459.116 290.867 459.076 290.896 459.042 290.932L455.302 294.911V290.43C455.302 290.328 455.263 290.229 455.195 290.157C455.127 290.084 455.035 290.044 454.939 290.044C454.843 290.046 454.751 290.087 454.684 290.159C454.616 290.231 454.577 290.328 454.575 290.43V294.911L450.842 290.909C450.808 290.873 450.768 290.844 450.724 290.824C450.68 290.805 450.632 290.795 450.584 290.795C450.536 290.795 450.489 290.805 450.445 290.824C450.4 290.844 450.36 290.873 450.326 290.909C450.259 290.983 450.222 291.081 450.222 291.183C450.222 291.286 450.259 291.384 450.326 291.458L454.067 295.429H449.854C449.759 295.431 449.667 295.472 449.6 295.544C449.532 295.616 449.493 295.713 449.491 295.815C449.491 295.917 449.529 296.016 449.598 296.088C449.666 296.16 449.758 296.201 449.854 296.201H454.067L450.326 300.18C450.259 300.253 450.222 300.352 450.222 300.454C450.222 300.557 450.259 300.655 450.326 300.728C450.396 300.798 450.489 300.837 450.584 300.837C450.68 300.837 450.772 300.798 450.842 300.728L454.575 296.75V301.223C454.575 301.325 454.614 301.424 454.682 301.496C454.75 301.569 454.842 301.609 454.939 301.609C455.035 301.609 455.127 301.569 455.195 301.496C455.263 301.424 455.302 301.325 455.302 301.223V296.75L459.042 300.728C459.112 300.798 459.204 300.837 459.3 300.837C459.396 300.837 459.488 300.798 459.558 300.728C459.625 300.655 459.662 300.557 459.662 300.454C459.662 300.352 459.625 300.253 459.558 300.18L455.817 296.201H460.023C460.119 296.201 460.211 296.16 460.28 296.088C460.348 296.016 460.386 295.917 460.386 295.815C460.38 295.717 460.34 295.624 460.272 295.557C460.205 295.489 460.115 295.452 460.023 295.452Z" fill="#6891F9"/>
<path d="M475.275 295.452H471.07L474.81 291.481C474.877 291.407 474.915 291.309 474.915 291.206C474.915 291.104 474.877 291.006 474.81 290.932C474.776 290.896 474.736 290.867 474.692 290.848C474.648 290.828 474.6 290.818 474.552 290.818C474.504 290.818 474.457 290.828 474.413 290.848C474.368 290.867 474.328 290.896 474.295 290.932L470.554 294.911V290.43C470.554 290.328 470.516 290.229 470.448 290.157C470.38 290.084 470.287 290.044 470.191 290.044C470.095 290.046 470.004 290.087 469.936 290.159C469.868 290.231 469.83 290.328 469.828 290.43V294.911L466.095 290.909C466.061 290.873 466.021 290.844 465.976 290.824C465.932 290.805 465.885 290.795 465.837 290.795C465.789 290.795 465.741 290.805 465.697 290.824C465.653 290.844 465.613 290.873 465.579 290.909C465.512 290.983 465.474 291.081 465.474 291.183C465.474 291.286 465.512 291.384 465.579 291.458L469.319 295.429H465.107C465.011 295.431 464.92 295.472 464.852 295.544C464.784 295.616 464.746 295.713 464.744 295.815C464.744 295.917 464.782 296.016 464.85 296.088C464.918 296.16 465.01 296.201 465.107 296.201H469.319L465.579 300.18C465.512 300.253 465.474 300.352 465.474 300.454C465.474 300.557 465.512 300.655 465.579 300.728C465.649 300.798 465.741 300.837 465.837 300.837C465.932 300.837 466.025 300.798 466.095 300.728L469.828 296.75V301.223C469.828 301.325 469.866 301.424 469.934 301.496C470.002 301.569 470.095 301.609 470.191 301.609C470.287 301.609 470.38 301.569 470.448 301.496C470.516 301.424 470.554 301.325 470.554 301.223V296.75L474.295 300.728C474.365 300.798 474.457 300.837 474.552 300.837C474.648 300.837 474.74 300.798 474.81 300.728C474.877 300.655 474.915 300.557 474.915 300.454C474.915 300.352 474.877 300.253 474.81 300.18L471.07 296.201H475.275C475.371 296.201 475.464 296.16 475.532 296.088C475.6 296.016 475.638 295.917 475.638 295.815C475.633 295.717 475.592 295.624 475.524 295.557C475.457 295.489 475.368 295.452 475.275 295.452Z" fill="#6891F9"/>
<path d="M490.528 295.452H486.322L490.063 291.481C490.13 291.407 490.167 291.309 490.167 291.206C490.167 291.104 490.13 291.006 490.063 290.932C490.029 290.896 489.989 290.867 489.945 290.848C489.9 290.828 489.853 290.818 489.805 290.818C489.757 290.818 489.71 290.828 489.665 290.848C489.621 290.867 489.581 290.896 489.547 290.932L485.807 294.911V290.43C485.807 290.328 485.768 290.229 485.7 290.157C485.632 290.084 485.54 290.044 485.443 290.044C485.348 290.046 485.256 290.087 485.189 290.159C485.121 290.231 485.082 290.328 485.08 290.43V294.911L481.347 290.909C481.313 290.873 481.273 290.844 481.229 290.824C481.185 290.805 481.137 290.795 481.089 290.795C481.041 290.795 480.994 290.805 480.95 290.824C480.905 290.844 480.865 290.873 480.831 290.909C480.764 290.983 480.727 291.081 480.727 291.183C480.727 291.286 480.764 291.384 480.831 291.458L484.572 295.429H480.359C480.264 295.431 480.172 295.472 480.104 295.544C480.037 295.616 479.998 295.713 479.996 295.815C479.996 295.917 480.034 296.016 480.102 296.088C480.171 296.16 480.263 296.201 480.359 296.201H484.572L480.831 300.18C480.764 300.253 480.727 300.352 480.727 300.454C480.727 300.557 480.764 300.655 480.831 300.728C480.901 300.798 480.993 300.837 481.089 300.837C481.185 300.837 481.277 300.798 481.347 300.728L485.08 296.75V301.223C485.08 301.325 485.119 301.424 485.187 301.496C485.255 301.569 485.347 301.609 485.443 301.609C485.54 301.609 485.632 301.569 485.7 301.496C485.768 301.424 485.807 301.325 485.807 301.223V296.75L489.547 300.728C489.617 300.798 489.709 300.837 489.805 300.837C489.901 300.837 489.993 300.798 490.063 300.728C490.13 300.655 490.167 300.557 490.167 300.454C490.167 300.352 490.13 300.253 490.063 300.18L486.322 296.201H490.528C490.624 296.201 490.716 296.16 490.784 296.088C490.852 296.016 490.891 295.917 490.891 295.815C490.885 295.717 490.844 295.624 490.777 295.557C490.709 295.489 490.62 295.452 490.528 295.452Z" fill="#6891F9"/>
<path d="M505.78 295.452H501.575L505.315 291.481C505.382 291.407 505.42 291.309 505.42 291.206C505.42 291.104 505.382 291.006 505.315 290.932C505.281 290.896 505.241 290.867 505.197 290.848C505.153 290.828 505.105 290.818 505.057 290.818C505.009 290.818 504.962 290.828 504.918 290.848C504.873 290.867 504.833 290.896 504.799 290.932L501.059 294.911V290.43C501.059 290.328 501.021 290.229 500.953 290.157C500.885 290.084 500.792 290.044 500.696 290.044C500.6 290.046 500.509 290.087 500.441 290.159C500.373 290.231 500.335 290.328 500.333 290.43V294.911L496.599 290.909C496.566 290.873 496.526 290.844 496.481 290.824C496.437 290.805 496.39 290.795 496.342 290.795C496.294 290.795 496.246 290.805 496.202 290.824C496.158 290.844 496.118 290.873 496.084 290.909C496.017 290.983 495.979 291.081 495.979 291.183C495.979 291.286 496.017 291.384 496.084 291.458L499.824 295.429H495.612C495.516 295.431 495.425 295.472 495.357 295.544C495.289 295.616 495.25 295.713 495.249 295.815C495.249 295.917 495.287 296.016 495.355 296.088C495.423 296.16 495.515 296.201 495.612 296.201H499.824L496.084 300.18C496.017 300.253 495.979 300.352 495.979 300.454C495.979 300.557 496.017 300.655 496.084 300.728C496.154 300.798 496.246 300.837 496.342 300.837C496.437 300.837 496.53 300.798 496.599 300.728L500.333 296.75V301.223C500.333 301.325 500.371 301.424 500.439 301.496C500.507 301.569 500.6 301.609 500.696 301.609C500.792 301.609 500.885 301.569 500.953 301.496C501.021 301.424 501.059 301.325 501.059 301.223V296.75L504.799 300.728C504.869 300.798 504.962 300.837 505.057 300.837C505.153 300.837 505.245 300.798 505.315 300.728C505.382 300.655 505.42 300.557 505.42 300.454C505.42 300.352 505.382 300.253 505.315 300.18L501.575 296.201H505.78C505.876 296.201 505.969 296.16 506.037 296.088C506.105 296.016 506.143 295.917 506.143 295.815C506.138 295.717 506.097 295.624 506.029 295.557C505.962 295.489 505.873 295.452 505.78 295.452Z" fill="#6891F9"/>
<path d="M521.033 295.452H516.827L520.568 291.481C520.635 291.407 520.672 291.309 520.672 291.206C520.672 291.104 520.635 291.006 520.568 290.932C520.534 290.896 520.494 290.867 520.449 290.848C520.405 290.828 520.358 290.818 520.31 290.818C520.262 290.818 520.214 290.828 520.17 290.848C520.126 290.867 520.086 290.896 520.052 290.932L516.311 294.911V290.43C516.311 290.328 516.273 290.229 516.205 290.157C516.137 290.084 516.045 290.044 515.948 290.044C515.853 290.046 515.761 290.087 515.694 290.159C515.626 290.231 515.587 290.328 515.585 290.43V294.911L511.852 290.909C511.818 290.873 511.778 290.844 511.734 290.824C511.689 290.805 511.642 290.795 511.594 290.795C511.546 290.795 511.499 290.805 511.454 290.824C511.41 290.844 511.37 290.873 511.336 290.909C511.269 290.983 511.232 291.081 511.232 291.183C511.232 291.286 511.269 291.384 511.336 291.458L515.077 295.429H510.864C510.768 295.431 510.677 295.472 510.609 295.544C510.542 295.616 510.503 295.713 510.501 295.815C510.501 295.917 510.539 296.016 510.607 296.088C510.675 296.16 510.768 296.201 510.864 296.201H515.077L511.336 300.18C511.269 300.253 511.232 300.352 511.232 300.454C511.232 300.557 511.269 300.655 511.336 300.728C511.406 300.798 511.498 300.837 511.594 300.837C511.69 300.837 511.782 300.798 511.852 300.728L515.585 296.75V301.223C515.585 301.325 515.623 301.424 515.692 301.496C515.76 301.569 515.852 301.609 515.948 301.609C516.045 301.609 516.137 301.569 516.205 301.496C516.273 301.424 516.311 301.325 516.311 301.223V296.75L520.052 300.728C520.122 300.798 520.214 300.837 520.31 300.837C520.406 300.837 520.498 300.798 520.568 300.728C520.635 300.655 520.672 300.557 520.672 300.454C520.672 300.352 520.635 300.253 520.568 300.18L516.827 296.201H521.033C521.129 296.201 521.221 296.16 521.289 296.088C521.357 296.016 521.396 295.917 521.396 295.815C521.39 295.717 521.349 295.624 521.282 295.557C521.214 295.489 521.125 295.452 521.033 295.452Z" fill="#6891F9"/>
<path d="M536.285 295.452H532.08L535.82 291.481C535.887 291.407 535.925 291.309 535.925 291.206C535.925 291.104 535.887 291.006 535.82 290.932C535.786 290.896 535.746 290.867 535.702 290.848C535.658 290.828 535.61 290.818 535.562 290.818C535.514 290.818 535.467 290.828 535.423 290.848C535.378 290.867 535.338 290.896 535.304 290.932L531.564 294.911V290.43C531.564 290.328 531.526 290.229 531.458 290.157C531.389 290.084 531.297 290.044 531.201 290.044C531.105 290.046 531.014 290.087 530.946 290.159C530.878 290.231 530.839 290.328 530.838 290.43V294.911L527.104 290.909C527.071 290.873 527.03 290.844 526.986 290.824C526.942 290.805 526.894 290.795 526.846 290.795C526.799 290.795 526.751 290.805 526.707 290.824C526.663 290.844 526.622 290.873 526.589 290.909C526.522 290.983 526.484 291.081 526.484 291.183C526.484 291.286 526.522 291.384 526.589 291.458L530.329 295.429H526.117C526.021 295.431 525.93 295.472 525.862 295.544C525.794 295.616 525.755 295.713 525.753 295.815C525.753 295.917 525.792 296.016 525.86 296.088C525.928 296.16 526.02 296.201 526.117 296.201H530.329L526.589 300.18C526.522 300.253 526.484 300.352 526.484 300.454C526.484 300.557 526.522 300.655 526.589 300.728C526.659 300.798 526.751 300.837 526.846 300.837C526.942 300.837 527.034 300.798 527.104 300.728L530.838 296.75V301.223C530.838 301.325 530.876 301.424 530.944 301.496C531.012 301.569 531.104 301.609 531.201 301.609C531.297 301.609 531.389 301.569 531.458 301.496C531.526 301.424 531.564 301.325 531.564 301.223V296.75L535.304 300.728C535.374 300.798 535.466 300.837 535.562 300.837C535.658 300.837 535.75 300.798 535.82 300.728C535.887 300.655 535.925 300.557 535.925 300.454C535.925 300.352 535.887 300.253 535.82 300.18L532.08 296.201H536.285C536.381 296.201 536.474 296.16 536.542 296.088C536.61 296.016 536.648 295.917 536.648 295.815C536.643 295.717 536.602 295.624 536.534 295.557C536.467 295.489 536.378 295.452 536.285 295.452Z" fill="#6891F9"/>
<path d="M551.537 295.452H547.332L551.073 291.481C551.14 291.407 551.177 291.309 551.177 291.206C551.177 291.104 551.14 291.006 551.073 290.932C551.039 290.896 550.999 290.867 550.954 290.848C550.91 290.828 550.863 290.818 550.815 290.818C550.767 290.818 550.719 290.828 550.675 290.848C550.631 290.867 550.591 290.896 550.557 290.932L546.816 294.911V290.43C546.816 290.328 546.778 290.229 546.71 290.157C546.642 290.084 546.55 290.044 546.453 290.044C546.357 290.046 546.266 290.087 546.198 290.159C546.131 290.231 546.092 290.328 546.09 290.43V294.911L542.357 290.909C542.323 290.873 542.283 290.844 542.239 290.824C542.194 290.805 542.147 290.795 542.099 290.795C542.051 290.795 542.004 290.805 541.959 290.824C541.915 290.844 541.875 290.873 541.841 290.909C541.774 290.983 541.737 291.081 541.737 291.183C541.737 291.286 541.774 291.384 541.841 291.458L545.582 295.429H541.369C541.273 295.431 541.182 295.472 541.114 295.544C541.047 295.616 541.008 295.713 541.006 295.815C541.006 295.917 541.044 296.016 541.112 296.088C541.18 296.16 541.273 296.201 541.369 296.201H545.582L541.841 300.18C541.774 300.253 541.737 300.352 541.737 300.454C541.737 300.557 541.774 300.655 541.841 300.728C541.911 300.798 542.003 300.837 542.099 300.837C542.195 300.837 542.287 300.798 542.357 300.728L546.09 296.75V301.223C546.09 301.325 546.128 301.424 546.196 301.496C546.265 301.569 546.357 301.609 546.453 301.609C546.55 301.609 546.642 301.569 546.71 301.496C546.778 301.424 546.816 301.325 546.816 301.223V296.75L550.557 300.728C550.627 300.798 550.719 300.837 550.815 300.837C550.91 300.837 551.003 300.798 551.073 300.728C551.14 300.655 551.177 300.557 551.177 300.454C551.177 300.352 551.14 300.253 551.073 300.18L547.332 296.201H551.537C551.634 296.201 551.726 296.16 551.794 296.088C551.862 296.016 551.901 295.917 551.901 295.815C551.895 295.717 551.854 295.624 551.787 295.557C551.719 295.489 551.63 295.452 551.537 295.452Z" fill="#6891F9"/>
<path d="M668.466 389.437C668.445 388.503 668.336 387.573 668.139 386.663C667.485 384.052 666.011 380.892 663.585 380.104C661.08 379.288 658.661 378.201 656.366 376.859C655.93 368.577 657.717 360.102 655.77 352.074C655.044 349.139 653.845 346.326 653.526 343.321C653.126 339.582 654.085 335.595 652.683 332.149C651.579 329.43 649.153 327.514 646.546 326.51C643.938 325.505 641.128 325.235 638.36 324.964C634.874 324.663 623.587 323.242 619.651 326.556C619.379 326.78 619.135 327.04 618.924 327.329C618.837 327.456 618.76 327.59 618.692 327.73L618.656 327.792C618.577 327.953 618.511 328.121 618.46 328.294C618.405 328.484 618.363 328.678 618.336 328.874C618.336 328.936 618.336 328.997 618.336 329.059C618.336 329.121 618.336 329.33 618.336 329.469V329.677C618.336 329.816 618.336 329.955 618.336 330.102C618.336 330.249 618.336 330.21 618.336 330.264C618.387 330.96 618.481 331.655 618.481 332.343C618.489 332.685 618.46 333.027 618.394 333.362C618.152 334.274 617.743 335.125 617.189 335.866L617.058 336.066C616.978 336.19 616.898 336.306 616.825 336.43C616.753 336.553 616.695 336.646 616.637 336.754C616.578 336.862 616.52 336.932 616.47 337.032C616.399 337.16 616.336 337.291 616.281 337.426C616.281 337.503 616.201 337.573 616.172 337.65C616.081 337.859 616.008 338.076 615.954 338.299C615.784 338.971 615.769 339.676 615.91 340.354C616.106 341.221 616.443 342.045 616.905 342.788C617.087 343.105 617.283 343.414 617.486 343.723L617.995 344.457C617.9 345.174 617.849 345.896 617.842 346.62C617.843 349.039 618.359 351.427 619.353 353.603C620.347 355.779 621.792 357.687 623.58 359.182C623.868 362.445 623.836 365.731 623.486 368.986C623.42 369.666 623.34 370.354 623.253 371.034C623.166 371.714 623.101 372.162 623.014 372.726C621.951 372.888 620.868 372.8 619.84 372.471C619.365 372.246 618.881 372.047 618.387 371.876C616.273 371.312 614.116 373.552 612.025 372.872C612.025 372.981 611.966 373.081 611.93 373.181C611.493 372.893 610.991 372.735 610.477 372.726C609.235 372.664 608.226 371.706 607.325 370.802L604.558 368.028C604.378 367.858 604.217 367.667 604.079 367.457C603.93 367.156 603.818 366.837 603.745 366.506C603.28 364.907 602.154 363.632 601.064 362.419C600.858 362.143 600.584 361.932 600.273 361.809C600.152 361.79 600.03 361.79 599.91 361.809C599.836 361.701 599.756 361.598 599.67 361.5C599.482 361.27 599.281 361.054 599.067 360.851C597.745 359.553 597.615 358.441 596.467 356.988C595.466 355.603 594.558 354.144 593.751 352.623C593.656 351.812 593.525 350.977 593.366 350.135C592.999 348.207 592.467 346.319 591.775 344.495L590.322 341.073L590.155 341.251C589.102 339.582 587.976 338.67 586.967 338.886C585.275 339.257 584.439 342.749 584.708 347.315L585.289 351.951C585.289 352.067 585.34 352.183 585.369 352.298C585.264 352.848 585.211 353.407 585.209 353.967C585.209 354.616 585.776 355.095 586.074 355.675C586.55 356.46 586.802 357.375 586.8 358.309C586.764 358.641 586.669 358.958 586.655 359.283C586.694 360.008 586.931 360.706 587.337 361.291L590.969 367.781L591.695 369.141L591.739 369.203C591.968 369.677 592.302 370.085 592.712 370.392C592.854 372.017 593.26 373.604 593.91 375.082C594.034 375.376 594.172 375.654 594.317 375.932C595.294 377.639 596.443 379.227 597.745 380.668L599.474 382.731C601.181 384.755 602.888 386.787 604.74 388.656C605.403 389.406 606.204 390.003 607.093 390.41C607.528 390.595 608.002 390.655 608.466 390.583C608.931 390.511 609.369 390.31 609.737 390.001C609.737 390.959 609.737 391.917 609.737 392.875C610.006 392.892 610.267 392.986 610.491 393.147C610.715 393.307 610.895 393.528 611.012 393.787C611.129 394.046 611.179 394.334 611.156 394.62C611.134 394.907 611.04 395.182 610.884 395.416C609.359 399.581 607.819 403.784 605.51 407.515C607.14 408.542 608.651 409.768 610.013 411.169C610.896 412.211 611.682 413.342 612.359 414.546C612.424 415.117 612.475 415.681 612.504 416.245C613.041 425.454 609.693 434.594 606.693 443.371C605.829 445.858 604.885 448.462 604.958 451.05C604.388 451.424 603.845 451.839 603.331 452.294C603.926 453.947 603.694 455.423 603.628 457.192C603.607 458.253 603.402 459.3 603.026 460.283C602.71 460.963 602.361 461.626 601.98 462.268C600.099 465.799 599.685 469.994 599.307 474.027C599.082 476.461 599.968 479.435 598.929 481.614C597.135 485.353 595.545 489.339 595.298 493.496C595.289 494.431 595.177 495.362 594.964 496.27C594.738 497.042 594.339 497.699 594.136 498.456C593.926 499.47 593.877 500.515 593.99 501.546C594.128 505.25 593.611 508.948 592.465 512.448C591.557 515.206 590.555 518.157 591.267 520.992C589.514 522.95 588.432 525.478 588.194 528.17C588.176 528.858 588.098 529.543 587.962 530.217C587.74 530.906 587.448 531.566 587.09 532.187C585.628 535.019 584.944 538.232 585.115 541.458C582.936 544.602 581.846 548.481 581.2 552.336C580.554 556.191 580.27 560.116 579.442 563.925C578.338 568.962 576.341 574.053 575.949 579.214C573.596 580.814 572.579 583.912 572.128 586.84C571.678 589.768 571.605 592.843 570.451 595.547C569.855 596.953 568.998 598.212 568.431 599.649C568.034 600.793 567.742 601.976 567.56 603.18C567.211 605.065 566.906 607.166 567.335 608.974C566.719 609.668 566 610.25 565.207 610.697C565.323 610.218 565.417 609.739 565.497 609.252C563.623 611.06 560.224 610.427 558.728 612.598C558.279 613.297 558.103 614.156 558.239 614.991C558.375 615.826 558.811 616.572 559.454 617.071C559.922 617.374 560.429 617.606 560.958 617.759C564.589 618.995 568.323 620.238 572.056 619.582C572.497 619.531 572.924 619.387 573.312 619.157C573.798 618.777 574.197 618.286 574.482 617.72C575.041 616.777 575.6 615.835 576.152 614.892C577.49 615.317 578.851 615.655 580.227 615.904C580.365 617.14 580.466 618.377 580.517 619.613C581.244 619.767 582.217 619.814 582.558 619.095C582.662 618.823 582.704 618.53 582.682 618.238C582.682 617.689 582.754 616.963 582.798 616.221H582.943C585.159 616.316 587.364 615.842 589.371 614.838C588.594 607.993 591.158 601.302 593.38 594.828C595.726 588.014 597.738 581.076 599.764 574.138C601.217 569.256 602.822 564.527 604.246 559.637C606.037 553.456 607.836 547.276 609.642 541.095C610.427 538.375 611.218 535.687 612.119 532.983C614.015 527.511 616.264 522.186 618.852 517.044C619.578 515.584 620.304 514.139 620.9 512.625C621.626 510.779 622.142 508.847 622.723 506.939C623.989 503.023 625.513 499.208 627.284 495.52C627.335 495.42 627.371 495.327 627.422 495.234C628.011 497.792 628.599 500.387 628.991 502.96C629.522 506.115 629.564 509.34 629.115 512.509C628.766 514.665 628.105 516.797 628.185 518.984C628.294 522.004 629.812 524.747 630.56 527.66C631.042 529.839 631.315 532.066 631.373 534.304C631.577 537.781 633.349 541.682 632.1 544.904C628.214 555.11 630.095 566.637 627.88 577.352C626.74 582.853 623.246 588.022 623.522 593.646C623.716 597.638 624.045 601.619 624.51 605.59C624.622 606.843 624.928 608.068 625.418 609.214C625.707 609.817 626.04 610.395 626.413 610.944C626.093 611.076 625.824 611.423 625.592 612.157C624.996 614.089 625.592 616.484 627.204 617.565C627.861 617.939 628.57 618.2 629.303 618.338C630.291 618.637 631.313 618.787 632.339 618.786C632.659 618.768 632.977 618.726 633.291 618.662C634.413 619.164 635.56 619.603 636.726 619.976C636.726 620.293 636.784 620.609 636.821 620.926C636.823 621.092 636.857 621.255 636.922 621.405C636.987 621.556 637.081 621.69 637.198 621.799C637.38 621.889 637.58 621.926 637.779 621.907H641.723C641.723 621.56 641.723 621.204 641.723 620.857C642.175 620.907 642.631 620.855 643.062 620.706C643.494 620.557 643.891 620.314 644.229 619.991C644.578 619.518 644.826 618.97 644.955 618.384C646.03 614.506 647.098 610.625 648.158 606.741C649.43 602.449 649.959 597.946 649.72 593.453C648.318 579.214 651.398 564.929 650.395 550.652C649.792 542.07 650.207 533.442 651.63 524.971C651.957 523.055 652.356 521.108 652.502 519.2C652.821 515.6 652.429 511.961 652.669 508.384C652.749 507.132 652.908 505.888 653.054 504.644C654.049 496.924 654.57 489.143 654.615 481.351C654.593 478.769 654.443 476.19 654.165 473.625C654.922 473.42 655.609 472.992 656.148 472.389C656.794 471.493 656.627 470.234 656.62 469.09C656.62 466.355 657.702 463.775 658.574 461.194C659.692 457.635 660.609 454.008 661.319 450.332C662.069 447.369 662.479 444.321 662.539 441.254C662.539 440.945 662.525 440.636 662.496 440.327C662.769 440.125 662.998 439.861 663.164 439.554C663.353 439.102 663.471 438.619 663.512 438.125C663.774 436.155 664.043 434.177 664.304 432.199C664.498 430.783 664.689 429.369 664.878 427.958L667.188 410.814C667.384 409.323 667.587 407.84 667.783 406.356L668.386 401.922C668.451 401.396 668.524 400.871 668.575 400.376C670.347 397.224 668.655 393.021 668.466 389.437ZM649.197 453.623C648.34 451.46 647.541 449.242 647.744 446.909H647.664C647.856 446.191 647.822 445.427 647.57 444.73C647.345 444.166 646.953 443.688 646.713 443.124C646.455 442.435 646.322 441.701 646.321 440.96C646.14 436.261 646.489 431.556 647.359 426.946C647.454 426.405 647.555 425.856 647.65 425.315C647.955 425.128 648.233 424.897 648.478 424.628C648.86 424.165 649.176 423.644 649.415 423.083C650.236 421.329 650.984 419.544 651.674 417.729C651.899 417.142 652.226 416.462 652.785 416.315C652.669 420.834 653.104 425.447 651.376 429.526C651.047 430.184 650.803 430.885 650.65 431.612C650.49 432.763 650.94 433.93 650.78 435.073C650.7 435.668 650.461 436.217 650.366 436.804C650.295 437.092 650.296 437.395 650.37 437.683C650.444 437.971 650.588 438.232 650.788 438.442C650.884 438.513 650.989 438.571 651.1 438.612C651.056 438.921 651.02 439.237 650.991 439.539C650.933 440.172 650.904 440.767 650.867 441.138C650.7 443.028 650.635 444.926 650.671 446.824C650.671 448.872 650.744 450.919 650.715 453.005C650.742 453.604 650.648 454.202 650.439 454.759C650.295 455.046 650.109 455.307 649.887 455.531C649.676 454.836 649.444 454.226 649.197 453.623Z" fill="url(#paint0_linear)"/>
<path d="M591.864 363.98C594.08 363.496 594.834 357.693 593.548 351.018C592.262 344.342 589.423 339.322 587.207 339.805C584.991 340.289 584.236 346.092 585.522 352.767C586.808 359.443 589.647 364.463 591.864 363.98Z" fill="#FBBEBE"/>
<path d="M625.708 612.304C625.113 614.22 625.708 616.615 627.32 617.658C627.974 618.028 628.677 618.289 629.405 618.431C630.39 618.727 631.41 618.875 632.434 618.871C633.69 618.809 634.896 618.284 636.152 618.099C636.297 618.06 636.451 618.082 636.581 618.16C636.644 618.232 636.691 618.318 636.719 618.411C636.746 618.505 636.754 618.604 636.741 618.701C636.754 619.461 636.808 620.219 636.901 620.973C636.902 621.138 636.936 621.302 637.001 621.452C637.066 621.603 637.161 621.737 637.278 621.846C637.46 621.936 637.66 621.973 637.859 621.954H641.796C641.885 618.275 641.506 614.6 640.67 611.029C640.615 610.756 640.517 610.495 640.38 610.257C640.046 609.868 639.607 609.598 639.123 609.484C638.161 609.058 637.121 608.866 636.08 608.92C634.809 609.098 633.748 609.971 632.666 610.697C631.584 611.423 630.11 612.065 628.795 611.694C627.48 611.323 626.384 610.156 625.708 612.304Z" fill="#3F3D56"/>
<path d="M567.908 608.912C566.801 610.173 565.444 611.155 563.935 611.786L563.267 612.126C563.175 612.164 563.096 612.231 563.042 612.319C563.029 612.38 563.029 612.442 563.042 612.502C563.054 612.562 563.079 612.618 563.114 612.667C563.67 613.582 564.492 614.278 565.454 614.651C566.417 615.023 567.467 615.051 568.446 614.73C568.878 614.615 569.279 614.392 569.615 614.081C570.169 613.382 570.486 612.506 570.516 611.593C570.736 610.651 570.698 609.662 570.407 608.742C569.397 606.324 569.027 607.421 567.908 608.912Z" fill="#FBBEBE"/>
<path d="M583.001 618.431C583.023 618.723 582.981 619.017 582.877 619.288C582.536 619.999 581.585 619.961 580.844 619.806C580.732 617.185 580.433 614.576 579.95 612.003C578.541 611.933 577.525 613.355 576.769 614.63L574.823 617.913C574.541 618.479 574.144 618.97 573.661 619.35C573.271 619.577 572.845 619.721 572.404 619.775C568.685 620.432 564.93 619.188 561.342 617.952C560.814 617.801 560.308 617.572 559.839 617.272C559.199 616.772 558.765 616.027 558.63 615.195C558.495 614.362 558.668 613.506 559.113 612.806C560.616 610.643 563.993 611.261 565.867 609.469C565.672 610.73 565.35 611.965 564.909 613.154C567.414 612.752 569.099 610.311 571.119 608.681C571.626 608.223 572.237 607.914 572.891 607.785C573.38 607.741 573.873 607.796 574.343 607.947C576.672 608.57 578.85 609.71 580.735 611.292C581.497 611.933 582.689 612.837 583.023 613.826C583.379 615.008 583.001 617.171 583.001 618.431Z" fill="#3F3D56"/>
<path d="M632.964 363.524C641.251 363.524 647.97 356.378 647.97 347.563C647.97 338.747 641.251 331.601 632.964 331.601C624.677 331.601 617.958 338.747 617.958 347.563C617.958 356.378 624.677 363.524 632.964 363.524Z" fill="#FBBEBE"/>
<path d="M662.525 441.802C662.464 444.854 662.057 447.886 661.312 450.834C660.601 454.494 659.685 458.106 658.566 461.65C657.702 464.223 656.62 466.803 656.627 469.53C656.627 470.666 656.801 471.925 656.148 472.822C655.566 473.451 654.832 473.897 654.027 474.112C653.625 474.225 653.254 474.437 652.944 474.731C652.634 475.025 652.393 475.392 652.24 475.804C651.558 474.72 651.048 473.525 650.73 472.265C649.427 468.021 648.216 463.754 647.098 459.464C646.996 459.217 646.951 458.947 646.969 458.678C646.987 458.408 647.066 458.148 647.2 457.918C647.384 457.748 647.599 457.619 647.832 457.54C648.576 457.217 649.258 456.751 649.843 456.165C650.118 455.905 650.345 455.593 650.512 455.245C650.723 454.692 650.819 454.096 650.795 453.499C650.795 451.452 650.795 449.412 650.744 447.365C650.714 445.475 650.782 443.584 650.947 441.702C650.947 441.331 651.013 440.736 651.071 440.103C651.18 438.89 651.398 437.484 652.015 437.012C652.938 436.356 655.698 437.236 656.743 437.391C658.545 437.654 660.375 437.963 662.133 438.326C662.388 439.465 662.52 440.631 662.525 441.802Z" fill="#3F3D56"/>
<path d="M601.936 365.432C601.355 366.669 599.96 367.264 598.885 368.044L595.203 370.732C594.957 370.968 594.669 371.149 594.355 371.263C594.042 371.377 593.71 371.423 593.38 371.397C593.08 371.279 592.806 371.099 592.573 370.867C592.339 370.635 592.152 370.355 592.022 370.045C592.024 370.024 592.024 370.003 592.022 369.983L591.259 368.623L587.628 362.149C587.224 361.569 586.989 360.876 586.952 360.156C586.952 359.824 587.061 359.514 587.09 359.182C587.1 358.249 586.847 357.334 586.364 356.555C586.073 355.976 585.492 355.497 585.507 354.848C585.479 353.995 585.618 353.146 585.914 352.353C586.295 351.619 586.841 350.998 587.504 350.545C587.846 350.282 588.194 350.035 588.557 349.772C588.75 349.632 588.964 349.528 589.189 349.463C589.792 349.332 590.388 349.865 590.998 349.888C593.62 351.758 594.629 355.296 596.692 357.846C597.854 359.298 597.97 360.411 599.285 361.709C599.496 361.909 599.699 362.126 599.895 362.35C600.155 362.651 600.375 362.989 600.549 363.354C600.788 364.019 602.234 364.799 601.936 365.432Z" fill="#3F3D56"/>
<path d="M627.691 363.532C628.773 365.966 629.616 368.639 629.303 371.312C629.239 372.036 629.024 372.736 628.672 373.359C627.626 375.067 625.432 375.376 623.522 375.476C623.12 375.44 622.714 375.49 622.33 375.623C621.946 375.755 621.591 375.968 621.285 376.249C621.03 376.643 620.905 377.117 620.93 377.595C620.955 378.073 621.128 378.529 621.423 378.891C622.037 379.588 622.799 380.118 623.646 380.436C626.667 381.85 629.928 383.016 633.211 382.692C634.736 382.537 636.218 382.066 637.736 381.827C639.391 381.636 641.054 381.538 642.718 381.533C644.694 381.456 646.662 381.247 648.63 381.039L653.845 380.49C654.13 380.494 654.407 380.387 654.622 380.189C655.007 379.71 654.514 379.007 654.034 378.644C651.267 376.465 647.744 374.966 646.168 371.69C645.442 370.145 645.217 368.306 644.679 366.638C644.142 364.969 643.285 363.462 642.951 361.763C642.773 360.272 642.692 358.769 642.711 357.266C642.729 355.751 642.211 354.283 641.258 353.156C640.22 352.129 638.716 351.866 637.307 351.804C633.836 351.642 630.139 352.523 627.677 355.126C627.016 355.829 626.449 356.671 625.766 357.305C625.084 357.938 624.154 358.124 624.604 358.958C625.055 359.793 625.941 360.31 626.42 361.044C626.905 361.836 627.33 362.668 627.691 363.532Z" fill="#FBBEBE"/>
<path d="M657.273 386.006C656.358 391.955 654.868 397.788 652.828 403.413C651.803 405.953 650.93 408.559 650.214 411.216C649.654 413.611 649.763 416.176 649.248 418.579C648.609 421.568 647.969 424.566 647.454 427.579C646.589 432.18 646.242 436.875 646.422 441.563C646.424 442.301 646.557 443.033 646.815 443.718C647.054 444.275 647.439 444.754 647.664 445.325C647.833 445.828 647.902 446.361 647.867 446.893C647.832 447.425 647.694 447.943 647.461 448.416C647.088 449.3 646.583 450.114 645.965 450.826C639.196 452.974 631.954 452.271 624.902 452.727C618.401 453.144 611.828 454.566 605.422 453.383C604.696 450.293 605.909 447.056 606.948 444.043C609.962 435.29 613.295 426.173 612.758 417.002C612.702 415.933 612.588 414.867 612.417 413.812C611.363 407.314 612.511 400.585 614.349 394.288C615.489 390.364 615.438 386.184 615.177 382.097C615.047 380.77 615.03 379.433 615.126 378.103C615.231 376.744 615.705 375.448 616.491 374.371C616.491 374.317 616.557 374.263 616.593 374.209C616.629 374.155 616.912 374.163 617.138 374.209C617.195 374.235 617.257 374.248 617.319 374.248C617.382 374.248 617.443 374.235 617.501 374.209L617.581 374.155C617.611 374.132 617.648 374.119 617.686 374.119C617.724 374.119 617.761 374.132 617.791 374.155C617.958 374.263 618.053 374.634 618.416 374.704C618.953 374.79 619.493 374.844 620.036 374.866C620.688 374.886 621.336 374.985 621.968 375.159H622.055C622.999 375.329 623.969 375.241 624.873 374.904C625.474 374.744 626.055 374.506 626.601 374.194C626.761 374.008 627.764 373.838 627.967 373.707C628.628 373.282 628.483 371.289 628.621 370.47C628.697 369.648 628.88 368.842 629.165 368.075C629.496 367.508 629.953 367.037 630.494 366.701C631.036 366.366 631.647 366.177 632.274 366.151C633.525 366.119 634.775 366.238 636 366.506C638.709 366.916 641.484 366.846 644.142 367.511C645.478 367.843 646.938 368.345 648.166 367.696C648.5 367.781 648.55 368.09 648.55 368.469C648.519 368.828 648.451 369.183 648.347 369.527C647.882 371.66 649.458 373.622 650.911 375.167C651.525 375.895 652.249 376.509 653.054 376.983C653.78 377.338 654.506 377.485 655.233 377.871C655.821 378.205 656.32 378.691 656.685 379.285C657.104 379.966 657.386 380.731 657.513 381.533C657.669 383.028 657.588 384.54 657.273 386.006Z" fill="#3F3D56"/>
<path opacity="0.1" d="M657.274 386.006C656.358 391.955 654.868 397.788 652.829 403.413C651.803 405.952 650.93 408.559 650.214 411.216C649.655 413.611 649.764 416.176 649.248 418.578C648.609 421.568 647.97 424.566 647.454 427.579C647.301 427.672 647.142 427.757 646.982 427.834C646.078 428.293 645.12 428.62 644.135 428.807C642.364 429.035 640.571 428.973 638.818 428.622L628.454 427.146C624.314 426.552 619.905 425.833 616.833 422.851C615.126 421.213 614.007 419.05 612.78 416.964C612.723 415.894 612.609 414.829 612.438 413.773C611.385 407.276 612.533 400.546 614.37 394.25C615.511 390.325 615.46 386.145 615.198 382.058C615.069 380.731 615.052 379.394 615.148 378.064C615.253 376.706 615.727 375.409 616.513 374.333C616.725 374.266 616.941 374.215 617.159 374.178C617.306 374.147 617.454 374.126 617.602 374.116H617.813C618.058 374.117 618.301 374.148 618.539 374.209C619.034 374.377 619.519 374.575 619.992 374.804H620.079C620.702 375.022 621.356 375.121 622.011 375.097C622.97 375.097 623.958 374.935 624.916 374.866C626.101 374.669 627.313 374.9 628.359 375.522C629.034 376.1 629.675 376.721 630.277 377.384C631.003 377.991 631.821 378.464 632.695 378.783C638.947 381.321 645.883 381.166 652.03 378.35C652.62 377.993 653.29 377.811 653.969 377.825C654.47 377.929 654.946 378.145 655.363 378.458C655.799 378.729 656.228 378.991 656.671 379.231C657.089 379.911 657.371 380.677 657.499 381.479C657.665 382.991 657.589 384.522 657.274 386.006Z" fill="black"/>
<path d="M663.6 380.892C660.708 379.952 657.929 378.656 655.32 377.029C654.901 376.718 654.426 376.502 653.925 376.395C653.244 376.387 652.573 376.568 651.979 376.921C645.835 379.736 638.901 379.891 632.652 377.353C631.779 377.032 630.962 376.559 630.233 375.955C629.629 375.294 628.989 374.672 628.316 374.093C625.926 372.447 622.621 374.379 619.948 373.32C619.474 373.095 618.99 372.897 618.496 372.726C616.382 372.162 614.232 374.402 612.155 373.722C611.382 375.957 610.811 378.264 610.448 380.614C610.153 383.312 609.995 386.025 609.976 388.741C609.976 390.371 609.904 392.002 609.976 393.632C610.232 393.676 610.477 393.777 610.694 393.927C610.912 394.077 611.098 394.274 611.24 394.505C611.335 394.774 611.374 395.062 611.354 395.349C611.334 395.636 611.256 395.915 611.124 396.166C609.606 400.315 608.066 404.51 605.764 408.226C607.386 409.254 608.892 410.478 610.252 411.872C612.794 414.731 614.044 418.741 616.789 421.383C619.883 424.357 624.292 425.084 628.41 425.671L638.774 427.146C640.53 427.496 642.325 427.561 644.098 427.34C645.082 427.149 646.037 426.819 646.938 426.358C647.527 426.097 648.064 425.719 648.522 425.246C648.905 424.783 649.22 424.263 649.458 423.701C650.279 421.955 651.027 420.17 651.717 418.362C651.957 417.721 652.32 416.971 652.974 416.917C656.823 413.224 660.455 409.439 664.304 405.746C665.851 404.382 667.239 402.826 668.437 401.11C670.347 398.105 668.611 393.848 668.437 390.217C668.416 389.288 668.306 388.364 668.11 387.459C667.486 384.824 666.018 381.672 663.6 380.892Z" fill="#6891F9"/>
<path opacity="0.1" d="M601.936 365.433C601.355 366.669 599.961 367.264 598.886 368.044L595.203 370.732C594.957 370.968 594.669 371.149 594.356 371.263C594.042 371.377 593.711 371.423 593.38 371.397C593.081 371.279 592.806 371.099 592.573 370.867C592.34 370.635 592.152 370.355 592.022 370.045C592.022 369.867 592.022 369.674 592.022 369.489C591.994 368.863 592.073 368.238 592.255 367.642C592.615 366.768 593.174 366.004 593.881 365.417C595.249 364.04 596.875 362.986 598.653 362.327C598.931 362.212 599.232 362.18 599.525 362.234C599.638 362.265 599.746 362.315 599.844 362.381C600.104 362.682 600.324 363.02 600.498 363.385C600.789 364.019 602.234 364.799 601.936 365.433Z" fill="black"/>
<path d="M610.608 373.575C609.373 373.514 608.364 372.563 607.463 371.659L604.71 368.94C604.526 368.774 604.365 368.582 604.231 368.368C604.082 368.068 603.97 367.749 603.897 367.418C603.313 365.857 602.399 364.461 601.224 363.339C601.019 363.062 600.745 362.853 600.432 362.736C600.137 362.678 599.832 362.71 599.554 362.829C597.775 363.488 596.148 364.541 594.782 365.919C594.075 366.506 593.516 367.271 593.155 368.144C592.972 368.739 592.893 369.365 592.922 369.991C592.939 372.032 593.37 374.045 594.186 375.893C594.31 376.179 594.448 376.465 594.593 376.743C595.562 378.447 596.707 380.03 598.007 381.464L599.735 383.519C601.435 385.543 603.134 387.567 604.979 389.429C605.64 390.179 606.442 390.774 607.332 391.175C607.779 391.369 608.268 391.428 608.745 391.347C609.221 391.265 609.667 391.045 610.034 390.711C610.382 390.283 610.644 389.783 610.804 389.244C611.923 386.153 612.983 382.939 613.048 379.609C613.064 378.276 613.011 376.942 612.889 375.615C612.78 374.209 611.843 373.66 610.608 373.575Z" fill="#6891F9"/>
<path d="M654.622 481.737C654.58 489.509 654.061 497.269 653.068 504.969C652.923 506.213 652.763 507.457 652.683 508.701C652.444 512.309 652.836 515.932 652.516 519.517C652.349 521.456 651.971 523.38 651.652 525.273C650.232 533.721 649.818 542.325 650.417 550.884C651.419 565.122 648.347 579.369 649.742 593.569C649.911 596.33 649.767 599.103 649.313 601.828C649.053 603.519 648.677 605.187 648.187 606.819C647.127 610.687 646.062 614.55 644.992 618.408C644.866 618.994 644.618 619.544 644.265 620.015C643.895 620.355 643.46 620.608 642.991 620.756C642.521 620.904 642.027 620.944 641.542 620.872C637.351 620.733 633.407 618.809 629.601 616.932C629.164 616.748 628.758 616.487 628.403 616.159C627.611 615.286 627.676 613.911 627.328 612.76C626.979 611.609 626.035 610.527 625.497 609.345C625.056 608.227 624.788 607.04 624.706 605.83C624.222 601.874 623.892 597.903 623.718 593.917C623.442 588.308 626.928 583.147 628.076 577.692C630.255 566.969 628.41 555.473 632.281 545.298C633.501 542.084 631.729 538.19 631.555 534.729C631.492 532.496 631.22 530.275 630.741 528.1C630.015 525.195 628.483 522.46 628.374 519.447C628.294 517.269 628.955 515.144 629.296 512.996C629.749 509.835 629.707 506.617 629.173 503.47C628.788 500.874 628.199 498.278 627.611 495.744L627.48 496.03C625.711 499.709 624.189 503.517 622.926 507.426C622.345 509.319 621.837 511.25 621.111 513.089C620.515 514.634 619.781 516.048 619.062 517.5C616.483 522.622 614.239 527.927 612.344 533.377C611.443 536.05 610.652 538.785 609.867 541.466L604.485 560.008C603.033 564.883 601.442 569.596 600.019 574.463C598.007 581.416 595.995 588.308 593.656 595.106C591.477 601.558 588.884 608.24 589.661 615.055C587.659 616.056 585.459 616.53 583.248 616.437C579.505 616.085 575.832 615.137 572.353 613.625C570.966 613.077 569.528 612.459 568.591 611.246C566.979 609.152 567.378 606.085 567.865 603.419C568.048 602.218 568.34 601.038 568.736 599.896C569.288 598.475 570.189 597.216 570.756 595.81C571.896 593.113 571.969 590.061 572.419 587.133C572.869 584.205 573.871 581.115 576.225 579.523C576.624 574.378 578.614 569.302 579.711 564.273C580.539 560.464 580.815 556.547 581.469 552.684C582.122 548.821 583.175 544.958 585.369 541.829C585.196 538.603 585.881 535.39 587.345 532.558C587.698 531.936 587.988 531.276 588.209 530.588C588.344 529.917 588.422 529.234 588.441 528.548C588.681 525.864 589.761 523.342 591.506 521.386C590.78 518.566 591.79 515.623 592.697 512.888C593.841 509.398 594.358 505.711 594.223 502.018C594.11 500.987 594.157 499.943 594.361 498.927C594.564 498.155 594.963 497.498 595.196 496.756C595.403 495.848 595.513 494.918 595.523 493.983C595.806 489.803 597.397 485.863 599.154 482.131C600.2 479.953 599.314 476.994 599.532 474.568C599.91 470.535 600.324 466.363 602.205 462.848C602.553 462.183 602.931 461.55 603.243 460.862C603.622 459.88 603.826 458.833 603.846 457.772C603.912 456.003 604.144 454.535 603.548 452.889C607.434 449.451 612.736 448.485 617.791 448.254C622.846 448.022 627.96 448.509 632.906 447.365C634.358 447.017 635.811 446.538 637.344 446.307C640.823 445.766 644.352 446.608 647.788 447.442C647.548 449.76 648.347 451.985 649.241 454.141C652.728 462.872 654.558 472.251 654.622 481.737Z" fill="#33313F"/>
<path opacity="0.1" d="M637.518 483.507L629.173 503.47C628.788 500.874 628.2 498.278 627.611 495.744L627.48 496.03V495.613L632.027 484.975L637.518 483.507Z" fill="black"/>
<path opacity="0.1" d="M662.525 441.802C662.043 442.185 661.469 442.413 660.869 442.459C659.949 442.494 659.03 442.36 658.152 442.065L651.616 440.327C651.411 440.273 651.211 440.198 651.02 440.103C651.129 438.89 651.347 437.484 651.964 437.012C652.887 436.356 655.647 437.236 656.693 437.391C658.494 437.654 660.324 437.963 662.082 438.326C662.354 439.463 662.503 440.629 662.525 441.802Z" fill="black"/>
<path d="M668.052 395.834C668.19 396.475 668.386 397.108 668.502 397.757C668.698 399.35 668.646 400.965 668.35 402.54L667.754 406.959L667.159 411.401L664.856 428.498L664.29 432.732L663.491 438.642C663.453 439.134 663.335 439.615 663.142 440.064C662.904 440.484 662.572 440.834 662.175 441.084C661.778 441.333 661.329 441.474 660.869 441.493C659.949 441.524 659.031 441.391 658.152 441.099L651.616 439.353C651.329 439.299 651.057 439.181 650.817 439.006C650.617 438.798 650.473 438.538 650.399 438.251C650.325 437.965 650.324 437.663 650.395 437.375C650.49 436.788 650.729 436.24 650.809 435.653C650.969 434.509 650.519 433.335 650.679 432.199C650.835 431.476 651.079 430.777 651.405 430.121C653.584 424.999 652.32 419.019 653.061 413.456C653.728 409.078 655.466 404.964 658.101 401.528C659.728 399.358 661.596 397.407 663.665 395.718C664.478 395.045 665.771 393.663 666.795 393.4C668.11 393.106 667.834 394.86 668.052 395.834Z" fill="#6891F9"/>
<path d="M618.583 329.283C618.104 330.906 618.852 332.69 618.51 334.344C618.14 336.167 616.528 337.434 616.07 339.265C615.344 342.054 617.566 344.596 619.193 346.914C625.222 355.52 624.43 367.433 622.367 377.933C620.707 386.357 618.412 394.624 615.504 402.656C614.596 405.151 613.593 407.685 611.807 409.555C615.148 408.535 618.699 407.507 622.048 408.496C626.289 409.748 629.95 414.128 634.25 413.132C636.835 412.521 638.651 410.08 640.975 408.728C645.333 406.233 650.584 407.801 655.443 408.604C656.49 408.867 657.586 408.808 658.603 408.434C659.38 407.99 660.039 407.344 660.52 406.557C662.689 403.598 663.987 400.023 664.253 396.282C664.368 394.419 664.11 392.551 663.495 390.802C662.88 389.053 661.923 387.463 660.687 386.138C659.656 385.102 658.421 384.268 657.629 383.047C656.859 381.622 656.447 380.01 656.431 378.366C655.857 369.867 657.804 361.191 655.799 352.971C655.073 350.043 653.889 347.238 653.569 344.24C653.17 340.509 654.121 336.515 652.727 333.1C651.63 330.388 649.212 328.464 646.604 327.475C643.997 326.486 641.208 326.208 638.44 325.93C634.46 325.575 620.246 323.759 618.583 329.283Z" fill="#33313F"/>
<g opacity="0.1">
<path opacity="0.1" d="M622.367 377.933C620.716 386.322 618.433 394.556 615.54 402.555C616.041 401.497 616.462 400.384 616.862 399.279C619.774 391.249 622.069 382.981 623.726 374.557C625.795 364.049 626.587 352.152 620.559 343.537C619.106 341.482 617.24 339.257 617.305 336.847C616.768 337.576 616.351 338.396 616.07 339.273C615.344 342.062 617.566 344.603 619.193 346.921C625.222 355.52 624.43 367.433 622.367 377.933Z" fill="black"/>
<path opacity="0.1" d="M618.598 333.563C619.18 332.793 619.615 331.908 619.876 330.96C619.988 329.812 619.959 328.654 619.789 327.514C619.229 327.962 618.809 328.578 618.583 329.283C618.155 330.651 618.648 332.134 618.598 333.563Z" fill="black"/>
<path opacity="0.1" d="M661.886 403.158C661.405 403.943 660.745 404.586 659.968 405.027C658.953 405.409 657.855 405.468 656.809 405.197C651.95 404.425 646.64 402.833 642.341 405.328C640.009 406.673 638.201 409.114 635.608 409.732C631.315 410.752 627.655 406.371 623.413 405.097C620.406 404.208 617.239 404.942 614.211 405.869C613.609 407.234 612.796 408.483 611.807 409.562C615.148 408.542 618.699 407.515 622.048 408.504C626.289 409.755 629.95 414.136 634.25 413.139C636.835 412.529 638.651 410.088 640.975 408.736C645.333 406.24 650.584 407.808 655.443 408.612C656.49 408.875 657.586 408.816 658.603 408.442C659.38 407.998 660.04 407.352 660.52 406.565C661.836 404.718 662.853 402.65 663.527 400.446C663.042 401.39 662.493 402.297 661.886 403.158Z" fill="black"/>
</g>
</g>
<defs>
<linearGradient id="paint0_linear" x1="558.241" y1="473.146" x2="669.367" y2="473.146" gradientUnits="userSpaceOnUse">
<stop stop-color="#808080" stop-opacity="0.25"/>
<stop offset="0.54" stop-color="#808080" stop-opacity="0.12"/>
<stop offset="1" stop-color="#808080" stop-opacity="0.1"/>
</linearGradient>
<clipPath id="clip0">
<rect width="847" height="622" fill="white"/>
</clipPath>
</defs>
</svg>
